<svg width="28" height="41" viewBox="0 0 28 41" fill="none" xmlns="http://www.w3.org/2000/svg">
<g clip-path="url(#clip0_33_1519)">
<path d="M26.2681 35.3496H24.7716L21.3337 28.8196C21.2556 28.6685 21.0993 28.5778 20.937 28.5778H20.3119V26.5946C20.3119 26.3467 20.1076 26.1411 19.8612 26.1411H19.3743L18.8334 22.991C18.8094 22.8701 18.7433 22.7613 18.6411 22.6948L17.7636 22.1022L16.4113 2.57879C16.4053 2.45786 16.3452 2.34298 16.249 2.26438L13.8449 0.244923C13.6766 0.105859 13.4362 0.105859 13.2679 0.244923L10.8638 2.26438C10.7676 2.34298 10.7135 2.45786 10.7015 2.57879L9.36122 22.0962L8.47771 22.6948C8.37554 22.7613 8.30341 22.8701 8.28538 22.9971L7.74446 26.1472H7.25763C7.0112 26.1472 6.80685 26.3527 6.80685 26.6006V28.5838H6.18179C6.0135 28.5838 5.86324 28.6745 5.78511 28.8257L2.34723 35.3557H0.850673C0.604252 35.3557 0.399902 35.5612 0.399902 35.8091V38.6872C0.399902 38.9351 0.604252 39.1406 0.850673 39.1406H26.2741C26.5206 39.1406 26.7249 38.9351 26.7249 38.6872V35.8091C26.7189 35.5491 26.5145 35.3496 26.2681 35.3496ZM7.7084 27.0481H10.1606V28.5778H7.7084V27.0481ZM19.4044 27.0481V28.5778H16.9522V27.0481H19.4044ZM16.0446 28.5778H11.0621V27.0481H16.0446V28.5778ZM16.6577 29.4847L17.8958 35.3436H9.21698L10.4551 29.4847H16.6577ZM23.7498 35.3496H18.8154L17.5833 29.4847H20.6605L23.7498 35.3496ZM11.585 2.83273L13.5504 1.1821L15.5157 2.83273L16.8019 21.4553L13.8028 19.4237C13.6526 19.3209 13.4542 19.3209 13.298 19.4237L10.3048 21.4492L11.585 2.83273ZM9.13884 23.3357L13.5564 20.3427L17.9739 23.3357L18.4548 26.1411H8.65802L9.13884 23.3357ZM6.45225 29.4847H9.52951L8.29139 35.3436H3.35696L6.45225 29.4847ZM25.8174 38.2276H1.29543V36.2565H25.8174V38.2276Z" fill="white" stroke="white" stroke-width="0.3"/>
<path d="M13.3236 6.56607C13.5701 6.56607 13.7745 6.36037 13.7745 6.11231V4.73892C13.7745 4.49086 13.5701 4.28516 13.3236 4.28516C13.0772 4.28516 12.8728 4.49086 12.8728 4.73892V6.11231C12.8728 6.36037 13.0772 6.56607 13.3236 6.56607Z" fill="white" stroke="white" stroke-width="0.3"/>
<path d="M13.3236 11.6061C13.5701 11.6061 13.7745 11.4004 13.7745 11.1523V9.77896C13.7745 9.5309 13.5701 9.3252 13.3236 9.3252C13.0772 9.3252 12.8728 9.5309 12.8728 9.77896V11.1523C12.8728 11.4004 13.0772 11.6061 13.3236 11.6061Z" fill="white" stroke="white" stroke-width="0.3"/>
<path d="M13.7745 16.1982V14.8249C13.7745 14.5768 13.5701 14.3711 13.3236 14.3711C13.0772 14.3711 12.8728 14.5768 12.8728 14.8249V16.1982C12.8728 16.4463 13.0772 16.652 13.3236 16.652C13.5701 16.652 13.7745 16.4463 13.7745 16.1982Z" fill="white" stroke="white" stroke-width="0.3"/>
</g>
<defs>
<clipPath id="clip0_33_1519">
<rect width="27" height="40" fill="white" transform="translate(0.199951 0.140625)"/>
</clipPath>
</defs>
</svg>
