<svg width="23" height="41" viewBox="0 0 23 41" fill="none" xmlns="http://www.w3.org/2000/svg">
<path d="M0.800049 39.3003C0.800049 38.8362 1.20979 38.46 1.71524 38.46H21.8849C22.3903 38.46 22.8 38.8362 22.8 39.3003C22.8 39.7644 22.3903 40.1406 21.8849 40.1406H1.71524C1.20979 40.1406 0.800049 39.7644 0.800049 39.3003Z" fill="white"/>
<path d="M16.376 38.46L16.376 13.9221L18.3 14.1406C18.3057 14.0907 18.3647 14.0695 18.3964 14.1084C18.51 14.2479 18.5725 14.4182 18.5725 14.5944L18.5725 38.46H16.376Z" fill="white"/>
<path d="M6.7523 4.56082L18.3896 14.0906L17.078 15.6008L6.06364 6.5007L6.7523 4.56082Z" fill="white"/>
<path d="M6.85685 0.140625C7.46365 0.140625 7.9552 0.592932 7.9539 1.1501L7.86483 39.4684L5.75979 39.1964V1.14795C5.75979 0.591619 6.25096 0.140625 6.85685 0.140625Z" fill="white"/>
<path d="M6.79295 19.3659C6.62462 19.0278 6.78797 18.6285 7.15707 18.4759L16.4161 14.646L16.9312 15.8466L7.76054 19.6968C7.39383 19.8507 6.96063 19.7026 6.79295 19.3659Z" fill="white"/>
<path d="M7.06125 19.523C7.28748 19.2148 7.74356 19.1344 8.07807 19.3437L17.4008 25.1764L16.5475 26.2023L7.25869 20.4539C6.92423 20.2469 6.83584 19.8301 7.06125 19.523Z" fill="white"/>
<path d="M6.49287 32.1227C6.29048 31.8008 6.41182 31.3892 6.76339 31.205L16.5616 26.0713L17.1914 27.2254L7.49047 32.3681C7.14118 32.5533 6.69454 32.4434 6.49287 32.1227Z" fill="white"/>
</svg>
