<svg width="30" height="42" viewBox="0 0 30 42" fill="none" xmlns="http://www.w3.org/2000/svg">
<path d="M28.9297 39.9688H22.8469L25.7766 34.1094H26.132C26.501 34.1098 26.8606 33.9939 27.1599 33.7782C27.4592 33.5625 27.6829 33.2579 27.7992 32.9078L28.3141 31.3648C28.3432 31.2767 28.3511 31.183 28.337 31.0913C28.3229 30.9995 28.2872 30.9125 28.2329 30.8372C28.1786 30.762 28.1072 30.7006 28.0246 30.6583C27.9421 30.616 27.8506 30.5939 27.7578 30.5938H20.8547L18.6477 12.4219C18.9634 12.3554 19.2599 12.2182 19.5149 12.0206C19.77 11.8231 19.977 11.5703 20.1203 11.2813L21.2508 9.01563C21.2945 8.92644 21.3148 8.82762 21.3098 8.72843C21.3048 8.62924 21.2747 8.53295 21.2223 8.44859C21.1699 8.36423 21.0969 8.29458 21.0102 8.24618C20.9235 8.19777 20.8259 8.17221 20.7266 8.17188H19.0078C19.9961 5.72891 18.7187 4.4375 17.2836 3.49453C16.6445 3.07422 15.9875 1.89453 15.7883 1.47578C15.7407 1.37537 15.6656 1.29055 15.5717 1.23121C15.4778 1.17187 15.3689 1.14045 15.2578 1.14063C15.147 1.14072 15.0384 1.17216 14.9447 1.23133C14.851 1.2905 14.7759 1.37497 14.7281 1.475C14.5289 1.89453 13.8688 3.07422 13.2328 3.49453C11.7977 4.4375 10.5203 5.72891 11.5078 8.17188H9.78906C9.68922 8.17188 9.59103 8.1974 9.50382 8.24601C9.4166 8.29462 9.34326 8.36471 9.29074 8.44962C9.23823 8.53454 9.20828 8.63147 9.20375 8.73121C9.19922 8.83095 9.22025 8.9302 9.26484 9.01953L10.3953 11.2852C10.5387 11.5742 10.7456 11.827 11.0007 12.0245C11.2558 12.2221 11.5523 12.3593 11.868 12.4258L9.66094 30.5938H2.75781C2.66501 30.5939 2.57356 30.616 2.49098 30.6583C2.40839 30.7006 2.33702 30.762 2.28273 30.8372C2.22844 30.9125 2.19277 30.9995 2.17866 31.0913C2.16455 31.183 2.1724 31.2767 2.20156 31.3648L2.71641 32.9078C2.8327 33.2579 3.0564 33.5625 3.35569 33.7782C3.65499 33.9939 4.01466 34.1098 4.38359 34.1094H4.73906L7.66875 39.9688H1.58594C1.43054 39.9688 1.2815 40.0305 1.17162 40.1404C1.06173 40.2503 1 40.3993 1 40.5547C1 40.7101 1.06173 40.8591 1.17162 40.969C1.2815 41.0789 1.43054 41.1406 1.58594 41.1406H28.9297C29.0851 41.1406 29.2341 41.0789 29.344 40.969C29.4539 40.8591 29.5156 40.7101 29.5156 40.5547C29.5156 40.3993 29.4539 40.2503 29.344 40.1404C29.2341 40.0305 29.0851 39.9688 28.9297 39.9688ZM13.8758 4.47422C14.4281 4.10938 14.9133 3.47109 15.2578 2.92734C15.6023 3.47422 16.0875 4.11094 16.6398 4.47422C18.0992 5.4375 18.6797 6.29141 17.7203 8.17188H12.7984C11.8359 6.29141 12.4164 5.4375 13.8758 4.47422ZM11.4437 10.757L10.7406 9.34375H19.7781L19.075 10.757C18.9941 10.9201 18.869 11.0571 18.7141 11.1525C18.5591 11.248 18.3804 11.298 18.1984 11.2969H12.3172C12.1357 11.2974 11.9577 11.2471 11.8034 11.1517C11.649 11.0563 11.5244 10.9196 11.4437 10.757ZM13.0422 12.4688H17.4734L19.6742 30.5938H10.8414L13.0422 12.4688ZM3.82812 32.5367L3.57109 31.7656H26.9445L26.6875 32.5367C26.6489 32.6535 26.5744 32.7551 26.4746 32.827C26.3749 32.899 26.255 32.9376 26.132 32.9375H15.2578H4.38359C4.26061 32.9376 4.14072 32.899 4.04098 32.827C3.94125 32.7551 3.86676 32.6535 3.82812 32.5367ZM6.05 34.1094H15.2578H24.4656L21.5359 39.9688H17.7969V37.8203C17.7969 37.1469 17.5294 36.5011 17.0532 36.0249C16.577 35.5488 15.9312 35.2812 15.2578 35.2812C14.5844 35.2812 13.9386 35.5488 13.4624 36.0249C12.9863 36.5011 12.7188 37.1469 12.7188 37.8203V39.9688H8.97969L6.05 34.1094ZM16.625 39.9688H13.8906V37.8203C13.8906 37.4577 14.0347 37.11 14.2911 36.8536C14.5475 36.5972 14.8952 36.4531 15.2578 36.4531C15.6204 36.4531 15.9682 36.5972 16.2246 36.8536C16.481 37.11 16.625 37.4577 16.625 37.8203V39.9688Z" fill="white" stroke="white" stroke-width="0.4"/>
</svg>
