<svg width="29" height="41" viewBox="0 0 29 41" fill="none" xmlns="http://www.w3.org/2000/svg">
<g clip-path="url(#clip0_33_1514)">
<path d="M18.4778 31.6278C18.4213 31.6273 18.367 31.6056 18.3256 31.567L15.8733 29.1407C15.8527 29.1207 15.8363 29.0969 15.8249 29.0705C15.8136 29.0442 15.8076 29.0159 15.8072 28.9872C15.8067 28.9585 15.812 28.9301 15.8226 28.9034C15.8332 28.8768 15.8489 28.8525 15.8689 28.832C15.8889 28.8114 15.9127 28.795 15.9391 28.7836C15.9654 28.7723 15.9937 28.7662 16.0224 28.7658C16.051 28.7654 16.0795 28.7707 16.1061 28.7813C16.1328 28.7919 16.1571 28.8076 16.1776 28.8276L18.6474 31.2539C18.6787 31.2841 18.7002 31.3229 18.7092 31.3654C18.7182 31.4079 18.7143 31.4521 18.6979 31.4924C18.6815 31.5326 18.6535 31.5671 18.6173 31.5912C18.5812 31.6153 18.5387 31.6281 18.4952 31.6278H18.4778Z" fill="white"/>
<path d="M11.8606 31.4757C11.8156 31.4797 11.7705 31.4697 11.7315 31.447C11.6925 31.4243 11.6616 31.39 11.6429 31.3489C11.6243 31.3078 11.6189 31.2619 11.6275 31.2177C11.6361 31.1734 11.6583 31.1328 11.691 31.1017L13.9912 28.8276C14.0327 28.7872 14.0886 28.765 14.1465 28.7658C14.2043 28.7667 14.2595 28.7904 14.2999 28.832C14.3403 28.8735 14.3625 28.9293 14.3617 28.9872C14.3609 29.0451 14.3371 29.1003 14.2956 29.1407L11.9954 31.4148C11.9585 31.4496 11.9111 31.471 11.8606 31.4757Z" fill="white"/>
<path fill-rule="evenodd" clip-rule="evenodd" d="M13.7821 28.6125C13.8806 28.5167 14.0132 28.4639 14.1507 28.4659C14.2881 28.4678 14.4192 28.5243 14.515 28.6228C14.6108 28.7214 14.6636 28.854 14.6616 28.9914C14.6597 29.1284 14.6037 29.259 14.5058 29.3547L12.2015 31.6328C12.1158 31.7139 12.0053 31.7637 11.8878 31.7744C11.7809 31.7841 11.6734 31.7603 11.5806 31.7063C11.4878 31.6522 11.4141 31.5706 11.3697 31.4728C11.3254 31.375 11.3126 31.2658 11.333 31.1604C11.3533 31.0561 11.4052 30.9606 11.4816 30.8868L13.7821 28.6125Z" fill="white"/>
<path d="M18.4784 29.2005H11.8605C11.8028 29.2005 11.7475 29.1776 11.7067 29.1368C11.666 29.0961 11.6431 29.0408 11.6431 28.9831V27.1395C11.6431 27.0818 11.666 27.0265 11.7067 26.9858C11.7475 26.945 11.8028 26.9221 11.8605 26.9221H18.4784C18.5361 26.9221 18.5914 26.945 18.6322 26.9858C18.6729 27.0265 18.6958 27.0818 18.6958 27.1395V28.9831C18.6958 29.0408 18.6729 29.0961 18.6322 29.1368C18.5914 29.1776 18.5361 29.2005 18.4784 29.2005ZM12.0779 28.7657H18.261V27.3569H12.0779V28.7657Z" fill="white"/>
<path fill-rule="evenodd" clip-rule="evenodd" d="M11.4946 26.7736C11.5916 26.6766 11.7232 26.6221 11.8605 26.6221H18.4784C18.6157 26.6221 18.7473 26.6766 18.8443 26.7736C18.9413 26.8707 18.9958 27.0023 18.9958 27.1395V28.9831C18.9958 29.1203 18.9413 29.2519 18.8443 29.349C18.7473 29.446 18.6157 29.5005 18.4784 29.5005H11.8605C11.7233 29.5005 11.5916 29.446 11.4946 29.349C11.3976 29.2519 11.3431 29.1203 11.3431 28.9831V27.1395C11.3431 27.0023 11.3976 26.8707 11.4946 26.7736ZM12.3779 27.6569V28.4657H17.961V27.6569H12.3779Z" fill="white"/>
<path d="M23.2135 3.54981H22.3439C22.2862 3.54981 22.2309 3.5269 22.1901 3.48613C22.1494 3.44536 22.1265 3.39006 22.1265 3.3324V0.79305C22.1265 0.620068 22.1952 0.454171 22.3175 0.331854C22.4398 0.209537 22.6057 0.14082 22.7787 0.14082C22.9517 0.14082 23.1176 0.209537 23.2399 0.331854C23.3622 0.454171 23.4309 0.620068 23.4309 0.79305V3.3237C23.4321 3.35297 23.4273 3.38218 23.4169 3.40957C23.4065 3.43696 23.3907 3.46197 23.3704 3.48308C23.3501 3.5042 23.3257 3.521 23.2988 3.53246C23.2718 3.54393 23.2428 3.54983 23.2135 3.54981ZM22.5613 3.11499H22.9961V0.79305C22.9961 0.735389 22.9732 0.68009 22.9324 0.639318C22.8917 0.598545 22.8364 0.57564 22.7787 0.57564C22.721 0.57564 22.6657 0.598545 22.625 0.639318C22.5842 0.68009 22.5613 0.735389 22.5613 0.79305V3.11499Z" fill="white"/>
<path fill-rule="evenodd" clip-rule="evenodd" d="M22.1054 0.119722C22.2839 -0.058856 22.5261 -0.15918 22.7787 -0.15918C23.0312 -0.15918 23.2734 -0.058856 23.452 0.119722C23.6306 0.2983 23.7309 0.540503 23.7309 0.79305V3.31898C23.7327 3.38621 23.7213 3.45316 23.6974 3.51606C23.6727 3.58124 23.635 3.64075 23.5867 3.69102C23.5383 3.74128 23.4803 3.78125 23.4162 3.80854C23.352 3.83582 23.283 3.84986 23.2133 3.84981H22.3439C22.2066 3.84981 22.075 3.79529 21.978 3.69826C21.881 3.60123 21.8265 3.46962 21.8265 3.3324V0.79305C21.8265 0.540503 21.9268 0.2983 22.1054 0.119722Z" fill="white"/>
<path d="M24.4699 6.59594H21.087C21.0294 6.59594 20.9741 6.57303 20.9333 6.53226C20.8925 6.49149 20.8696 6.43619 20.8696 6.37853V3.67395C20.8696 3.52634 20.9283 3.38477 21.0326 3.2804C21.137 3.17602 21.2786 3.11738 21.4262 3.11738H24.1308C24.2784 3.11738 24.42 3.17602 24.5243 3.2804C24.6287 3.38477 24.6873 3.52634 24.6873 3.67395V6.37853C24.6873 6.43619 24.6644 6.49149 24.6237 6.53226C24.5829 6.57303 24.5276 6.59594 24.4699 6.59594ZM21.3044 6.16112H24.2525V3.67395C24.2514 3.64201 24.2383 3.61166 24.2157 3.58906C24.1931 3.56646 24.1627 3.55329 24.1308 3.5522H21.4262C21.3943 3.55329 21.3639 3.56646 21.3413 3.58906C21.3187 3.61166 21.3055 3.64201 21.3044 3.67395V6.16112Z" fill="white"/>
<path fill-rule="evenodd" clip-rule="evenodd" d="M20.8205 3.06827C20.9811 2.90763 21.199 2.81738 21.4262 2.81738H24.1308C24.358 2.81738 24.5758 2.90763 24.7365 3.06827C24.8971 3.2289 24.9873 3.44678 24.9873 3.67395V6.37853C24.9873 6.51575 24.9328 6.64736 24.8358 6.74439C24.7388 6.84143 24.6072 6.89594 24.4699 6.89594H21.087C20.9498 6.89594 20.8182 6.84143 20.7212 6.74439C20.6241 6.64736 20.5696 6.51575 20.5696 6.37853V3.67395C20.5696 3.44678 20.6599 3.2289 20.8205 3.06827ZM21.6045 3.8522H23.9525V5.86112H21.6045V3.8522Z" fill="white"/>
<path d="M25.3391 9.35672H20.2169C20.1593 9.35672 20.104 9.33381 20.0632 9.29304C20.0224 9.25227 19.9995 9.19697 19.9995 9.13931V6.71301C20.0006 6.56575 20.0597 6.42485 20.1638 6.32072C20.2679 6.21659 20.4088 6.15758 20.5561 6.15645H24.9999C25.1472 6.15758 25.2881 6.21659 25.3922 6.32072C25.4964 6.42485 25.5554 6.56575 25.5565 6.71301V9.13931C25.5565 9.19697 25.5336 9.25227 25.4928 9.29304C25.4521 9.33381 25.3968 9.35672 25.3391 9.35672ZM20.4343 8.9219H25.1217V6.71301C25.1206 6.68107 25.1074 6.65073 25.0848 6.62813C25.0622 6.60552 25.0319 6.59235 24.9999 6.59126H20.5561C20.5241 6.59235 20.4938 6.60552 20.4712 6.62813C20.4486 6.65073 20.4354 6.68107 20.4343 6.71301V8.9219Z" fill="white"/>
<path fill-rule="evenodd" clip-rule="evenodd" d="M20.5561 5.85645H25.0023C25.2283 5.85819 25.4445 5.94876 25.6044 6.10859C25.7642 6.26841 25.8548 6.48468 25.8565 6.7107L25.8565 6.71301L25.8565 9.13931C25.8565 9.27653 25.802 9.40814 25.705 9.50517C25.6079 9.6022 25.4763 9.65672 25.3391 9.65672H20.2169C20.0797 9.65672 19.9481 9.6022 19.8511 9.50517C19.754 9.40814 19.6995 9.27653 19.6995 9.13931V6.7107C19.7013 6.48468 19.7918 6.26841 19.9517 6.10859C20.1115 5.94876 20.3277 5.8582 20.5538 5.85645L20.5561 5.85645ZM20.7343 6.89126H24.8217V8.6219H20.7343V6.89126Z" fill="white"/>
<path d="M25.6049 10.5048H19.9523C19.8946 10.5048 19.8393 10.4819 19.7985 10.4411C19.7578 10.4004 19.7349 10.3451 19.7349 10.2874V9.65257C19.7349 9.45883 19.8118 9.27302 19.9488 9.13603C20.0858 8.99903 20.2716 8.92207 20.4654 8.92207H25.0918C25.2856 8.92207 25.4714 8.99903 25.6084 9.13603C25.7454 9.27302 25.8223 9.45883 25.8223 9.65257V10.2874C25.8223 10.3451 25.7994 10.4004 25.7587 10.4411C25.7179 10.4819 25.6626 10.5048 25.6049 10.5048ZM20.1697 10.07H25.3875V9.63517C25.3875 9.55676 25.3564 9.48155 25.3009 9.4261C25.2455 9.37065 25.1703 9.3395 25.0918 9.3395H20.4654C20.3869 9.3395 20.3117 9.37065 20.2563 9.4261C20.2008 9.48155 20.1697 9.55676 20.1697 9.63517V10.07Z" fill="white"/>
<path fill-rule="evenodd" clip-rule="evenodd" d="M19.7367 8.92389C19.9299 8.73064 20.1921 8.62207 20.4654 8.62207H25.0918C25.3651 8.62207 25.6273 8.73064 25.8205 8.92389C26.0138 9.11715 26.1223 9.37926 26.1223 9.65257V10.2874C26.1223 10.4246 26.0678 10.5562 25.9708 10.6533C25.8738 10.7503 25.7422 10.8048 25.6049 10.8048H19.9523C19.8151 10.8048 19.6834 10.7503 19.5864 10.6533C19.4894 10.5562 19.4349 10.4246 19.4349 10.2874V9.65257C19.4349 9.37926 19.5434 9.11715 19.7367 8.92389ZM20.4697 9.6395V9.76999H25.0875V9.6395H20.4697Z" fill="white"/>
<path d="M26.2092 18.2625H19.3478C19.2901 18.2625 19.2348 18.2396 19.194 18.1988C19.1533 18.1581 19.1304 18.1028 19.1304 18.0451V10.6271C19.1304 10.4795 19.189 10.3379 19.2934 10.2335C19.3978 10.1291 19.5393 10.0705 19.6869 10.0705H25.8701C26.0177 10.0705 26.1593 10.1291 26.2636 10.2335C26.368 10.3379 26.4266 10.4795 26.4266 10.6271V18.0451C26.4266 18.1028 26.4037 18.1581 26.363 18.1988C26.3222 18.2396 26.2669 18.2625 26.2092 18.2625ZM19.5652 17.8277H25.9918V10.6271C25.9907 10.5951 25.9776 10.5648 25.955 10.5422C25.9324 10.5196 25.902 10.5064 25.8701 10.5053H19.6869C19.655 10.5064 19.6247 10.5196 19.6021 10.5422C19.5794 10.5648 19.5663 10.5951 19.5652 10.6271V17.8277Z" fill="white"/>
<path fill-rule="evenodd" clip-rule="evenodd" d="M19.0813 10.0214C19.2419 9.86075 19.4598 9.77051 19.6869 9.77051H25.8701C26.0972 9.77051 26.3151 9.86075 26.4758 10.0214C26.6364 10.182 26.7266 10.3999 26.7266 10.6271V18.0451C26.7266 18.1823 26.6721 18.3139 26.5751 18.411C26.4781 18.508 26.3465 18.5625 26.2092 18.5625H19.3478C19.2106 18.5625 19.079 18.508 18.9819 18.411C18.8849 18.3139 18.8304 18.1823 18.8304 18.0451V10.6271C18.8304 10.3999 18.9206 10.182 19.0813 10.0214ZM19.8652 10.8053H25.6918V17.5277H19.8652V10.8053Z" fill="white"/>
<path d="M27.0784 38.9388H18.4777C18.42 38.9388 18.3647 38.9159 18.3239 38.8751C18.2832 38.8344 18.2603 38.7791 18.2603 38.7214V18.3849C18.2603 18.2373 18.3189 18.0957 18.4233 17.9913C18.5276 17.887 18.6692 17.8283 18.8168 17.8283H26.7392C26.8868 17.8283 27.0284 17.887 27.1328 17.9913C27.2372 18.0957 27.2958 18.2373 27.2958 18.3849V38.7214C27.2958 38.7791 27.2729 38.8344 27.2321 38.8751C27.1914 38.9159 27.1361 38.9388 27.0784 38.9388ZM18.6951 38.504H26.861V18.3849C26.8616 18.3687 26.8589 18.3526 26.853 18.3376C26.8471 18.3225 26.8381 18.3089 26.8267 18.2974C26.8153 18.286 26.8016 18.2771 26.7865 18.2712C26.7715 18.2653 26.7554 18.2625 26.7392 18.2631H18.8168C18.8007 18.2625 18.7846 18.2653 18.7695 18.2712C18.7545 18.2771 18.7408 18.286 18.7294 18.2974C18.7179 18.3089 18.709 18.3225 18.7031 18.3376C18.6972 18.3526 18.6945 18.3687 18.6951 18.3849V38.504Z" fill="white"/>
<path fill-rule="evenodd" clip-rule="evenodd" d="M18.2111 17.7792C18.3718 17.6186 18.5896 17.5283 18.8168 17.5283H26.7392C26.9664 17.5283 27.1843 17.6186 27.3449 17.7792C27.5056 17.9398 27.5958 18.1577 27.5958 18.3849V38.7214C27.5958 38.8586 27.5413 38.9902 27.4443 39.0873C27.3472 39.1843 27.2156 39.2388 27.0784 39.2388H18.4777C18.3404 39.2388 18.2088 39.1843 18.1118 39.0873C18.0148 38.9902 17.9603 38.8586 17.9603 38.7214V18.3849C17.9603 18.1577 18.0505 17.9398 18.2111 17.7792ZM18.9951 18.5631V38.204H26.561V18.5631H18.9951Z" fill="white"/>
<path d="M7.99476 3.54981H7.12512C7.06746 3.54981 7.01217 3.5269 6.97139 3.48613C6.93062 3.44536 6.90771 3.39006 6.90771 3.3324V0.79305C6.90771 0.620068 6.97643 0.454171 7.09875 0.331854C7.22107 0.209537 7.38696 0.14082 7.55994 0.14082C7.73293 0.14082 7.89882 0.209537 8.02114 0.331854C8.14346 0.454171 8.21217 0.620068 8.21217 0.79305V3.3237C8.21335 3.35297 8.20859 3.38218 8.19819 3.40957C8.18779 3.43696 8.17196 3.46197 8.15165 3.48308C8.13135 3.5042 8.10698 3.521 8.08002 3.53246C8.05306 3.54393 8.02406 3.54983 7.99476 3.54981ZM7.34253 3.11499H7.77735V0.79305C7.77735 0.735389 7.75445 0.68009 7.71368 0.639318C7.6729 0.598545 7.6176 0.57564 7.55994 0.57564C7.50228 0.57564 7.44698 0.598545 7.40621 0.639318C7.36544 0.68009 7.34253 0.735389 7.34253 0.79305V3.11499Z" fill="white"/>
<path fill-rule="evenodd" clip-rule="evenodd" d="M6.88662 0.119722C7.06519 -0.0588557 7.3074 -0.15918 7.55994 -0.15918C7.81249 -0.15918 8.05469 -0.058856 8.23327 0.119722C8.41185 0.2983 8.51217 0.540503 8.51217 0.79305V3.31898C8.51392 3.3862 8.50254 3.45315 8.47865 3.51606C8.4539 3.58125 8.41623 3.64076 8.3679 3.69102C8.31957 3.74128 8.26159 3.78125 8.19743 3.80854C8.13327 3.83582 8.06425 3.84986 7.99452 3.84981H7.12512C6.9879 3.84981 6.85629 3.79529 6.75926 3.69826C6.66223 3.60123 6.60771 3.46962 6.60771 3.3324V0.79305C6.60771 0.540502 6.70804 0.298299 6.88662 0.119722Z" fill="white"/>
<path d="M9.25118 6.59594H5.86829C5.81063 6.59594 5.75533 6.57303 5.71456 6.53226C5.67378 6.49149 5.65088 6.43619 5.65088 6.37853V3.67395C5.65088 3.52634 5.70952 3.38477 5.81389 3.2804C5.91827 3.17602 6.05984 3.11738 6.20745 3.11738H8.91203C9.05964 3.11738 9.2012 3.17602 9.30558 3.2804C9.40996 3.38477 9.46859 3.52634 9.46859 3.67395V6.37853C9.46859 6.43619 9.44569 6.49149 9.40492 6.53226C9.36414 6.57303 9.30885 6.59594 9.25118 6.59594ZM6.0857 6.16112H9.03377V3.67395C9.03269 3.64201 9.01952 3.61166 8.99691 3.58906C8.97431 3.56646 8.94397 3.55329 8.91203 3.5522H6.20745C6.1755 3.55329 6.14516 3.56646 6.12256 3.58906C6.09996 3.61166 6.08678 3.64201 6.0857 3.67395V6.16112Z" fill="white"/>
<path fill-rule="evenodd" clip-rule="evenodd" d="M5.60176 3.06827C5.7624 2.90763 5.98027 2.81738 6.20745 2.81738H8.91203C9.1392 2.81738 9.35707 2.90763 9.51771 3.06827C9.67835 3.2289 9.76859 3.44678 9.76859 3.67395V6.37853C9.76859 6.51575 9.71408 6.64736 9.61705 6.74439C9.52001 6.84143 9.38841 6.89594 9.25118 6.89594H5.86829C5.73106 6.89594 5.59946 6.84143 5.50242 6.74439C5.40539 6.64736 5.35088 6.51575 5.35088 6.37853V3.67395C5.35088 3.44678 5.44112 3.2289 5.60176 3.06827ZM6.3857 3.8522H8.73377V5.86112H6.3857V3.8522Z" fill="white"/>
<path d="M10.1213 9.35672H4.99915C4.94149 9.35672 4.88619 9.33381 4.84542 9.29304C4.80464 9.25227 4.78174 9.19697 4.78174 9.13931V6.71301C4.78288 6.56575 4.84188 6.42485 4.94601 6.32072C5.05014 6.21659 5.19105 6.15758 5.33831 6.15645H9.78216C9.92942 6.15758 10.0703 6.21659 10.1745 6.32072C10.2786 6.42485 10.3376 6.56575 10.3387 6.71301V9.13931C10.3387 9.19697 10.3158 9.25227 10.2751 9.29304C10.2343 9.33381 10.179 9.35672 10.1213 9.35672ZM5.21656 8.9219H9.90391V6.71301C9.90283 6.68107 9.88965 6.65073 9.86705 6.62813C9.84445 6.60552 9.81411 6.59235 9.78216 6.59126H5.33831C5.30636 6.59235 5.27602 6.60552 5.25342 6.62813C5.23082 6.65073 5.21764 6.68107 5.21656 6.71301V8.9219Z" fill="white"/>
<path fill-rule="evenodd" clip-rule="evenodd" d="M5.33831 5.85645H9.78448C10.0105 5.85819 10.2268 5.94876 10.3866 6.10859C10.5464 6.26841 10.637 6.48468 10.6387 6.7107L10.6387 6.71301L10.6387 9.13931C10.6387 9.27653 10.5842 9.40814 10.4872 9.50517C10.3902 9.6022 10.2585 9.65672 10.1213 9.65672H4.99915C4.86192 9.65672 4.73032 9.6022 4.63328 9.50517C4.53625 9.40814 4.48174 9.27653 4.48174 9.13931V6.7107C4.48348 6.48468 4.57405 6.26841 4.73388 6.10859C4.8937 5.94876 5.10997 5.8582 5.33599 5.85645L5.33831 5.85645ZM5.51656 6.89126H9.60391V8.6219H5.51656V6.89126Z" fill="white"/>
<path d="M10.3862 10.5048H4.73352C4.67586 10.5048 4.62056 10.4819 4.57979 10.4411C4.53902 10.4004 4.51611 10.3451 4.51611 10.2874V9.65257C4.51611 9.45883 4.59308 9.27302 4.73007 9.13603C4.86707 8.99903 5.05287 8.92207 5.24661 8.92207H9.87309C10.0668 8.92207 10.2526 8.99903 10.3896 9.13603C10.5266 9.27302 10.6036 9.45883 10.6036 9.65257V10.2874C10.6036 10.3451 10.5807 10.4004 10.5399 10.4411C10.4991 10.4819 10.4438 10.5048 10.3862 10.5048ZM4.95093 10.07H10.1688V9.63517C10.1688 9.55676 10.1376 9.48155 10.0822 9.4261C10.0267 9.37065 9.95151 9.3395 9.87309 9.3395H5.24661C5.16819 9.3395 5.09299 9.37065 5.03753 9.4261C4.98208 9.48155 4.95093 9.55676 4.95093 9.63517V10.07Z" fill="white"/>
<path fill-rule="evenodd" clip-rule="evenodd" d="M4.51794 8.92389C4.71119 8.73064 4.97331 8.62207 5.24661 8.62207H9.87309C10.1464 8.62207 10.4085 8.73064 10.6018 8.92389C10.795 9.11715 10.9036 9.37926 10.9036 9.65257V10.2874C10.9036 10.4246 10.8491 10.5562 10.752 10.6533C10.655 10.7503 10.5234 10.8048 10.3862 10.8048H4.73352C4.5963 10.8048 4.46469 10.7503 4.36766 10.6533C4.27063 10.5562 4.21611 10.4246 4.21611 10.2874V9.65257C4.21611 9.37926 4.32468 9.11715 4.51794 8.92389ZM5.25093 9.6395V9.76999H9.86877V9.6395H5.25093Z" fill="white"/>
<path d="M10.9905 18.2625H4.12903C4.07137 18.2625 4.01607 18.2396 3.9753 18.1988C3.93453 18.1581 3.91162 18.1028 3.91162 18.0451V10.6271C3.91162 10.4795 3.97026 10.3379 4.07464 10.2335C4.17901 10.1291 4.32058 10.0705 4.46819 10.0705H10.6513C10.7989 10.0705 10.9405 10.1291 11.0449 10.2335C11.1493 10.3379 11.2079 10.4795 11.2079 10.6271V18.0451C11.2079 18.1028 11.185 18.1581 11.1442 18.1988C11.1034 18.2396 11.0481 18.2625 10.9905 18.2625ZM4.34644 17.8277H10.7731V10.6271C10.772 10.5951 10.7588 10.5648 10.7362 10.5422C10.7136 10.5196 10.6833 10.5064 10.6513 10.5053H4.46819C4.43624 10.5064 4.4059 10.5196 4.3833 10.5422C4.3607 10.5648 4.34752 10.5951 4.34644 10.6271V17.8277Z" fill="white"/>
<path fill-rule="evenodd" clip-rule="evenodd" d="M3.8625 10.0214C4.02314 9.86075 4.24101 9.77051 4.46819 9.77051H10.6513C10.8785 9.77051 11.0964 9.86075 11.257 10.0214C11.4177 10.182 11.5079 10.3999 11.5079 10.6271V18.0451C11.5079 18.1823 11.4534 18.3139 11.3563 18.411C11.2593 18.508 11.1277 18.5625 10.9905 18.5625H4.12903C3.99181 18.5625 3.8602 18.508 3.76317 18.411C3.66613 18.3139 3.61162 18.1823 3.61162 18.0451V10.6271C3.61162 10.3999 3.70187 10.182 3.8625 10.0214ZM4.64644 10.8053H10.4731V17.5277H4.64644V10.8053Z" fill="white"/>
<path d="M11.8596 38.9388H3.25891C3.20125 38.9388 3.14595 38.9159 3.10518 38.8751C3.06441 38.8344 3.0415 38.7791 3.0415 38.7214V18.3849C3.0415 18.2373 3.10014 18.0957 3.20452 17.9913C3.3089 17.887 3.45046 17.8283 3.59807 17.8283H11.5205C11.6681 17.8283 11.8097 17.887 11.914 17.9913C12.0184 18.0957 12.0771 18.2373 12.0771 18.3849V38.7214C12.0771 38.7791 12.0541 38.8344 12.0134 38.8751C11.9726 38.9159 11.9173 38.9388 11.8596 38.9388ZM3.47632 38.504H11.6422V18.3849C11.6428 18.3687 11.6401 18.3526 11.6342 18.3376C11.6283 18.3225 11.6194 18.3089 11.6079 18.2974C11.5965 18.286 11.5828 18.2771 11.5678 18.2712C11.5527 18.2653 11.5366 18.2625 11.5205 18.2631H3.59807C3.58192 18.2625 3.56582 18.2653 3.55077 18.2712C3.53572 18.2771 3.52205 18.286 3.51063 18.2974C3.4992 18.3089 3.49025 18.3225 3.48435 18.3376C3.47844 18.3526 3.47571 18.3687 3.47632 18.3849V38.504Z" fill="white"/>
<path fill-rule="evenodd" clip-rule="evenodd" d="M2.99239 17.7792C3.15302 17.6186 3.3709 17.5283 3.59807 17.5283H11.5205C11.7477 17.5283 11.9655 17.6186 12.1262 17.7792C12.2868 17.9398 12.3771 18.1577 12.3771 18.3849V38.7214C12.3771 38.8586 12.3225 38.9902 12.2255 39.0873C12.1285 39.1843 11.9969 39.2388 11.8596 39.2388H3.25891C3.12169 39.2388 2.99008 39.1843 2.89305 39.0873C2.79602 38.9902 2.7415 38.8586 2.7415 38.7214V18.3849C2.7415 18.1577 2.83175 17.9398 2.99239 17.7792ZM3.77632 18.5631V38.204H11.3422V18.5631H3.77632Z" fill="white"/>
<path d="M0.600098 38.8986C0.600098 38.4844 0.935884 38.1486 1.3501 38.1486H27.8501C28.2643 38.1486 28.6001 38.4844 28.6001 38.8986C28.6001 39.3128 28.2643 39.6486 27.8501 39.6486H1.3501C0.935885 39.6486 0.600098 39.3128 0.600098 38.8986Z" fill="white"/>
</g>
<defs>
<clipPath id="clip0_33_1514">
<rect width="28" height="40" fill="white" transform="translate(0.600098 0.140625)"/>
</clipPath>
</defs>
</svg>
