<svg width="171" height="42" viewBox="0 0 171 42" fill="none" xmlns="http://www.w3.org/2000/svg">
<path d="M31.0797 0.973133H12.4008C9.37267 0.973133 6.46857 2.17898 4.32736 4.32541C2.18616 6.47183 0.983238 9.38301 0.983238 12.4185H26.6686C27.4245 12.4185 28.1494 12.7195 28.684 13.2554C29.2185 13.7912 29.5188 14.5179 29.5188 15.2757V41.0236C31.0181 41.0236 32.5027 40.7275 33.8878 40.1523C35.273 39.5771 36.5315 38.734 37.5916 37.6712C38.6517 36.6084 39.4925 35.3466 40.0661 33.958C40.6397 32.5694 40.9349 31.0811 40.9346 29.5782V10.8588C40.9346 8.23816 39.8966 5.72471 38.0486 3.87097C36.2006 2.01723 33.694 0.974915 31.0797 0.973133Z" fill="black"/>
<path d="M21.2548 18.1429H9.23707C8.15232 18.1529 7.63928 19.5025 8.39878 20.2706L21.6908 33.595C22.457 34.363 23.8033 33.8487 23.8133 32.7546V20.7092C23.812 20.0293 23.5421 19.3776 23.0626 18.8966C22.5831 18.4156 21.9331 18.1446 21.2548 18.1429Z" fill="black"/>
<path d="M61.5801 33.3126C59.9373 33.3265 58.3077 33.0176 56.7834 32.4034C55.3291 31.8179 54.0061 30.9471 52.8921 29.842C51.7671 28.7186 50.8863 27.3738 50.3051 25.8924C49.6748 24.2875 49.3611 22.5752 49.3813 20.8504C49.3625 19.1884 49.6648 17.5384 50.2716 15.9916C50.8484 14.542 51.6995 13.218 52.778 12.0924C53.8523 10.9706 55.1494 10.0871 56.5856 9.49916C58.1087 8.88097 59.7391 8.57192 61.3823 8.58992C63.3819 8.58992 65.1792 8.9591 66.7742 9.69748C68.3261 10.403 69.7009 11.4476 70.798 12.7546C71.5681 13.6766 72.1996 14.7066 72.6724 15.8118C72.7458 15.9751 72.7772 16.1543 72.7638 16.3329C72.7503 16.5115 72.6924 16.6839 72.5953 16.8344C72.4983 16.9848 72.3652 17.1084 72.2082 17.194C72.0512 17.2796 71.8754 17.3244 71.6967 17.3244H68.3603C68.074 17.3251 67.7934 17.2446 67.5507 17.0924C67.3081 16.9401 67.1133 16.7223 66.9888 16.4639C66.7642 15.9909 66.4754 15.5514 66.1304 15.158C65.5629 14.5178 64.8663 14.0057 64.0866 13.6555C63.1935 13.2641 62.2261 13.072 61.2515 13.0924C60.0419 13.0754 58.8506 13.3898 57.8061 14.0017C56.7575 14.6363 55.9198 15.5679 55.3986 16.679C54.8151 17.8588 54.5239 19.2969 54.5251 20.9933C54.5028 22.4025 54.7836 23.8 55.3483 25.0908C55.8724 26.2722 56.7259 27.2766 57.8061 27.9832C58.8948 28.6992 60.2299 29.0571 61.8115 29.0571C62.864 29.0812 63.9078 28.8608 64.8612 28.4134C65.7087 28.0007 66.4439 27.3882 67.0039 26.6286C67.5712 25.855 67.9709 24.9711 68.1775 24.0336H61.3169V21.2823C61.3169 20.9489 61.449 20.6292 61.6842 20.3934C61.9194 20.1577 62.2384 20.0252 62.571 20.0252H72.4629C72.6041 20.0252 72.7439 20.0533 72.8743 20.1078C73.0046 20.1623 73.1229 20.2423 73.2222 20.3429C73.3215 20.4436 73.4 20.563 73.4529 20.6943C73.5059 20.8255 73.5324 20.966 73.5308 21.1076C73.5221 22.5518 73.296 23.9864 72.8602 25.363C72.3697 26.9133 71.5661 28.3458 70.4996 29.5714C69.4472 30.767 68.1402 31.7101 66.6753 32.3311C65.0617 33.0039 63.3276 33.338 61.5801 33.3126Z" fill="black"/>
<path d="M84.494 32.8168H79.4878V13.6134H73.1016C72.8188 13.6134 72.5476 13.5008 72.3476 13.3004C72.1477 13.0999 72.0353 12.828 72.0353 12.5445V9.08571H90.917C91.0571 9.08571 91.1957 9.11336 91.3251 9.16708C91.4545 9.22079 91.572 9.29953 91.671 9.39878C91.7701 9.49804 91.8486 9.61588 91.9022 9.74556C91.9558 9.87525 91.9834 10.0142 91.9834 10.1546V13.6134H84.494V32.8168Z" fill="black"/>
<path d="M103.954 32.8168L97.7508 17.0504V32.8168H93.2123V9.08571H98.6076C98.7861 9.08532 98.9605 9.13904 99.108 9.23982C99.2555 9.3406 99.3692 9.48372 99.4341 9.65042L106.072 26.6689L112.962 9.08571H117.897C118.18 9.08571 118.451 9.19827 118.651 9.39869C118.852 9.5991 118.964 9.87097 118.965 10.1546V32.8168H114.408V16.9193L108.142 32.8168H103.954Z" fill="black"/>
<path d="M136.502 32.8168H122.159V9.08571H125.067C125.256 9.08571 125.437 9.16079 125.57 9.29443C125.703 9.42807 125.778 9.60932 125.778 9.79831V29.5445H136.502V32.8168Z" fill="black"/>
<path d="M148.796 32.8168V30.1059C148.272 31.05 147.496 31.8288 146.555 32.3546C145.609 32.8824 144.488 33.1468 143.191 33.1479C141.39 33.1479 139.937 32.6683 138.832 31.7092C137.728 30.7501 137.179 29.4667 137.184 27.8588C137.184 26.1412 137.86 24.8415 139.211 23.9597C140.562 23.0779 142.535 22.637 145.129 22.637C145.636 22.637 146.13 22.6482 146.613 22.6706C147.096 22.693 147.69 22.749 148.394 22.8387V21.5496C148.394 20.3171 148.075 19.3529 147.438 18.6571C146.801 17.9613 145.9 17.6146 144.734 17.6168C143.524 17.6168 142.563 17.9636 141.85 18.6571C141.137 19.3507 140.758 20.3031 140.712 21.5143H138.448C138.347 21.5142 138.247 21.4924 138.155 21.4506C138.063 21.4087 137.981 21.3477 137.914 21.2716C137.847 21.1954 137.797 21.1059 137.768 21.0089C137.738 20.912 137.73 20.8098 137.742 20.7092C137.851 19.771 138.161 18.8675 138.651 18.0605C139.25 17.086 140.106 16.2966 141.124 15.7798C142.245 15.2222 143.483 14.9443 144.734 14.9697C146.888 14.9697 148.564 15.5485 149.764 16.7059C150.963 17.8633 151.562 19.488 151.561 21.5798V32.8168H148.796ZM140.356 27.7597C140.341 28.1725 140.419 28.5836 140.584 28.962C140.75 29.3404 140.998 29.6763 141.312 29.9445C141.949 30.4958 142.795 30.7714 143.85 30.7714C145.257 30.7714 146.368 30.3692 147.182 29.5647C147.995 28.7602 148.402 27.6857 148.401 26.3412V24.921C147.763 24.8549 147.205 24.805 146.724 24.7714C146.241 24.7395 145.778 24.7227 145.339 24.7227C143.669 24.7227 142.422 24.9703 141.597 25.4655C140.772 25.9608 140.358 26.7255 140.356 27.7597Z" fill="black"/>
<path d="M170.015 24.0588C170.042 25.6688 169.715 27.265 169.058 28.7344C168.479 30.0422 167.551 31.1638 166.375 31.9748C165.221 32.7591 163.852 33.1513 162.269 33.1513C161.086 33.1636 159.922 32.8491 158.906 32.242C157.875 31.6161 157.023 30.7338 156.433 29.6807V32.8202H153.331V9.79495C153.331 9.60596 153.406 9.4247 153.54 9.29106C153.673 9.15742 153.854 9.08234 154.042 9.08234H156.661V18.3109C157.22 17.289 158.039 16.4337 159.035 15.8319C160.014 15.2554 161.131 14.9579 162.266 14.9714C163.849 14.9714 165.212 15.3574 166.355 16.1294C167.526 16.9377 168.454 18.0519 169.038 19.3513C169.688 20.7272 170.014 22.2964 170.015 24.0588ZM166.553 24.0588C166.553 22.0756 166.086 20.5552 165.151 19.4975C164.715 18.9861 164.17 18.5785 163.557 18.3041C162.944 18.0296 162.278 17.8954 161.607 17.9109C160.718 17.8989 159.845 18.1453 159.092 18.6202C158.316 19.1273 157.699 19.8439 157.312 20.6874C156.872 21.5905 156.653 22.6919 156.653 23.9916C156.653 25.27 156.867 26.372 157.295 27.2975C157.672 28.1602 158.283 28.8988 159.06 29.4286C160.009 30.0348 161.141 30.2832 162.256 30.1292C163.37 29.9753 164.393 29.4291 165.143 28.5882C166.083 27.5283 166.553 26.0185 166.553 24.0588Z" fill="black"/>
</svg>
