<svg width="171" height="42" viewBox="0 0 171 42" fill="none" xmlns="http://www.w3.org/2000/svg">
<path d="M31.0797 0.973145H12.4008C9.37267 0.973145 6.46857 2.17899 4.32736 4.32542C2.18616 6.47184 0.983238 9.38302 0.983238 12.4185H26.6686C27.4245 12.4185 28.1494 12.7195 28.684 13.2554C29.2185 13.7912 29.5188 14.5179 29.5188 15.2757V41.0236C31.0181 41.0236 32.5027 40.7275 33.8878 40.1523C35.273 39.5771 36.5315 38.734 37.5916 37.6712C38.6517 36.6084 39.4925 35.3466 40.0661 33.958C40.6397 32.5694 40.9349 31.0811 40.9346 29.5782V10.8589C40.9346 8.23817 39.8966 5.72472 38.0486 3.87098C36.2006 2.01724 33.694 0.974927 31.0797 0.973145Z" fill="white"/>
<path d="M21.2548 18.1431H9.23707C8.15232 18.1532 7.63928 19.5027 8.39878 20.2708L21.6908 33.5952C22.457 34.3632 23.8033 33.8489 23.8133 32.7548V20.7095C23.812 20.0295 23.5421 19.3778 23.0626 18.8968C22.5831 18.4159 21.9331 18.1448 21.2548 18.1431Z" fill="white"/>
<path d="M61.5801 33.3128C59.9373 33.3267 58.3077 33.0178 56.7834 32.4035C55.3291 31.8181 54.0061 30.9472 52.8921 29.8422C51.7671 28.7187 50.8863 27.374 50.3051 25.8926C49.6748 24.2876 49.3611 22.5753 49.3813 20.8506C49.3625 19.1886 49.6648 17.5386 50.2716 15.9918C50.8484 14.5422 51.6995 13.2181 52.778 12.0926C53.8523 10.9708 55.1494 10.0873 56.5856 9.49934C58.1087 8.88116 59.7391 8.5721 61.3823 8.5901C63.3819 8.5901 65.1792 8.95929 66.7742 9.69766C68.3261 10.4032 69.7009 11.4478 70.798 12.7548C71.5681 13.6768 72.1996 14.7068 72.6724 15.8119C72.7458 15.9753 72.7772 16.1545 72.7638 16.3331C72.7503 16.5117 72.6924 16.6841 72.5953 16.8345C72.4983 16.985 72.3652 17.1086 72.2082 17.1942C72.0512 17.2798 71.8754 17.3246 71.6967 17.3246H68.3603C68.074 17.3252 67.7934 17.2448 67.5507 17.0926C67.3081 16.9403 67.1133 16.7224 66.9888 16.464C66.7642 15.9911 66.4754 15.5516 66.1304 15.1582C65.5629 14.518 64.8663 14.0058 64.0866 13.6556C63.1935 13.2643 62.2261 13.0721 61.2515 13.0926C60.0419 13.0755 58.8506 13.3899 57.8061 14.0019C56.7575 14.6365 55.9198 15.568 55.3986 16.6792C54.8151 17.859 54.5239 19.2971 54.5251 20.9935C54.5028 22.4027 54.7836 23.8002 55.3483 25.0909C55.8724 26.2724 56.7259 27.2768 57.8061 27.9834C58.8948 28.6993 60.2299 29.0573 61.8115 29.0573C62.864 29.0813 63.9078 28.861 64.8612 28.4136C65.7087 28.0008 66.4439 27.3884 67.0039 26.6288C67.5712 25.8552 67.9709 24.9713 68.1775 24.0338H61.3169V21.2825C61.3169 20.9491 61.449 20.6294 61.6842 20.3936C61.9194 20.1578 62.2384 20.0254 62.571 20.0254H72.4629C72.6041 20.0254 72.7439 20.0535 72.8743 20.108C73.0046 20.1625 73.1229 20.2424 73.2222 20.3431C73.3215 20.4438 73.4 20.5632 73.4529 20.6944C73.5059 20.8257 73.5324 20.9662 73.5308 21.1077C73.5221 22.552 73.296 23.9866 72.8602 25.3632C72.3697 26.9135 71.5661 28.346 70.4996 29.5716C69.4472 30.7671 68.1402 31.7103 66.6753 32.3313C65.0617 33.0041 63.3276 33.3382 61.5801 33.3128Z" fill="white"/>
<path d="M84.494 32.817H79.4878V13.6137H73.1016C72.8188 13.6137 72.5476 13.5011 72.3476 13.3006C72.1477 13.1001 72.0353 12.8283 72.0353 12.5448V9.08594H90.917C91.0571 9.08594 91.1957 9.11359 91.3251 9.1673C91.4545 9.22102 91.572 9.29975 91.671 9.39901C91.7701 9.49827 91.8486 9.61611 91.9022 9.74579C91.9558 9.87548 91.9834 10.0145 91.9834 10.1548V13.6137H84.494V32.817Z" fill="white"/>
<path d="M103.954 32.817L97.7508 17.0506V32.817H93.2123V9.08594H98.6076C98.7861 9.08555 98.9605 9.13927 99.108 9.24005C99.2555 9.34083 99.3692 9.48395 99.4341 9.65065L106.072 26.6691L112.962 9.08594H117.897C118.18 9.08594 118.451 9.1985 118.651 9.39891C118.852 9.59932 118.964 9.8712 118.965 10.1548V32.817H114.408V16.9196L108.142 32.817H103.954Z" fill="white"/>
<path d="M136.502 32.817H122.159V9.08594H125.067C125.256 9.08594 125.437 9.16102 125.57 9.29465C125.703 9.42829 125.778 9.60955 125.778 9.79854V29.5448H136.502V32.817Z" fill="white"/>
<path d="M148.796 32.8169V30.106C148.272 31.0501 147.496 31.8289 146.555 32.3547C145.609 32.8825 144.488 33.1469 143.191 33.148C141.39 33.148 139.937 32.6685 138.832 31.7094C137.728 30.7503 137.179 29.4668 137.184 27.8589C137.184 26.1413 137.86 24.8416 139.211 23.9598C140.562 23.078 142.535 22.6371 145.129 22.6371C145.636 22.6371 146.13 22.6483 146.613 22.6707C147.096 22.6931 147.69 22.7491 148.394 22.8388V21.5497C148.394 20.3172 148.075 19.3531 147.438 18.6573C146.801 17.9615 145.9 17.6147 144.734 17.6169C143.524 17.6169 142.563 17.9637 141.85 18.6573C141.137 19.3508 140.758 20.3032 140.712 21.5144H138.448C138.347 21.5143 138.247 21.4926 138.155 21.4507C138.063 21.4088 137.981 21.3478 137.914 21.2717C137.847 21.1955 137.797 21.106 137.768 21.009C137.738 20.9121 137.73 20.8099 137.742 20.7094C137.851 19.7711 138.161 18.8676 138.651 18.0606C139.25 17.0861 140.106 16.2967 141.124 15.7799C142.245 15.2223 143.483 14.9444 144.734 14.9699C146.888 14.9699 148.564 15.5486 149.764 16.706C150.963 17.8634 151.562 19.4881 151.561 21.5799V32.8169H148.796ZM140.356 27.7598C140.341 28.1727 140.419 28.5837 140.584 28.9621C140.75 29.3405 140.998 29.6764 141.312 29.9447C141.949 30.4959 142.795 30.7715 143.85 30.7715C145.257 30.7715 146.368 30.3693 147.182 29.5648C147.995 28.7603 148.402 27.6858 148.401 26.3413V24.9211C147.763 24.855 147.205 24.8052 146.724 24.7715C146.241 24.7396 145.778 24.7228 145.339 24.7228C143.669 24.7228 142.422 24.9704 141.597 25.4657C140.772 25.9609 140.358 26.7256 140.356 27.7598Z" fill="white"/>
<path d="M170.015 24.059C170.042 25.669 169.715 27.2652 169.058 28.7346C168.479 30.0424 167.551 31.164 166.375 31.975C165.221 32.7593 163.852 33.1514 162.269 33.1514C161.086 33.1638 159.922 32.8492 158.906 32.2422C157.875 31.6163 157.023 30.734 156.433 29.6808V32.8203H153.331V9.79513C153.331 9.60613 153.406 9.42488 153.54 9.29124C153.673 9.1576 153.854 9.08252 154.042 9.08252H156.661V18.3111C157.22 17.2892 158.039 16.4339 159.035 15.8321C160.014 15.2556 161.131 14.958 162.266 14.9716C163.849 14.9716 165.212 15.3576 166.355 16.1296C167.526 16.9378 168.454 18.0521 169.038 19.3514C169.688 20.7273 170.014 22.2965 170.015 24.059ZM166.553 24.059C166.553 22.0758 166.086 20.5553 165.151 19.4976C164.715 18.9863 164.17 18.5786 163.557 18.3042C162.944 18.0298 162.278 17.8955 161.607 17.9111C160.718 17.8991 159.845 18.1455 159.092 18.6203C158.316 19.1275 157.699 19.8441 157.312 20.6876C156.872 21.5906 156.653 22.692 156.653 23.9918C156.653 25.2702 156.867 26.3722 157.295 27.2976C157.672 28.1604 158.283 28.899 159.06 29.4287C160.009 30.035 161.141 30.2834 162.256 30.1294C163.37 29.9755 164.393 29.4292 165.143 28.5884C166.083 27.5285 166.553 26.0187 166.553 24.059Z" fill="white"/>
</svg>
