<svg width="64" height="64" viewBox="0 0 64 64" fill="none" xmlns="http://www.w3.org/2000/svg">
<rect x="0.5" y="0.5" width="63" height="63" rx="31.5" fill="#F9F9FA"/>
<rect x="0.5" y="0.5" width="63" height="63" rx="31.5" stroke="#E6E6E6"/>
<path fill-rule="evenodd" clip-rule="evenodd" d="M37.0437 30.9231C37.1986 30.9049 37.347 30.904 37.4835 30.9231C37.5625 30.7439 37.576 30.4352 37.505 30.099C37.3996 29.5992 37.2566 29.2968 36.9613 29.3439C36.6661 29.3911 36.6552 29.7532 36.7609 30.2527C36.8203 30.5339 36.926 30.7742 37.0437 30.9231Z" fill="#231F20"/>
<path fill-rule="evenodd" clip-rule="evenodd" d="M34.5104 31.3186C34.7215 31.4103 34.8514 31.4712 34.9021 31.418C34.9349 31.3849 34.925 31.3217 34.8745 31.2402C34.7703 31.072 34.5559 30.9012 34.3283 30.8053C33.8632 30.6072 33.3082 30.673 32.8802 30.9773C32.7389 31.0797 32.6049 31.2216 32.624 31.3077C32.6302 31.3354 32.6514 31.3564 32.7009 31.3634C32.8174 31.3765 33.2245 31.173 33.6936 31.1446C34.0245 31.1245 34.2991 31.2269 34.5104 31.3186Z" fill="#231F20"/>
<path fill-rule="evenodd" clip-rule="evenodd" d="M34.0864 31.5585C33.8112 31.6014 33.6595 31.6913 33.5621 31.7746C33.4791 31.8464 33.4277 31.926 33.4282 31.9818C33.4284 32.0084 33.44 32.0238 33.4491 32.0315C33.4616 32.0424 33.4765 32.0485 33.4944 32.0485C33.5565 32.0485 33.6958 31.9932 33.6958 31.9932C34.0786 31.8576 34.3312 31.8742 34.5815 31.9022C34.7197 31.9176 34.7852 31.926 34.8154 31.8791C34.8244 31.8656 34.8352 31.8364 34.8076 31.7921C34.7433 31.6887 34.4652 31.5139 34.0864 31.5585Z" fill="#231F20"/>
<path fill-rule="evenodd" clip-rule="evenodd" d="M36.1888 32.4387C36.3756 32.5295 36.5813 32.4938 36.6482 32.3591C36.7152 32.2245 36.6181 32.0416 36.4313 31.9508C36.2445 31.86 36.0388 31.8957 35.9718 32.0304C35.9048 32.1652 36.002 32.3479 36.1888 32.4387Z" fill="#231F20"/>
<path fill-rule="evenodd" clip-rule="evenodd" d="M37.3899 31.4007C37.2383 31.3981 37.1123 31.5628 37.1088 31.7689C37.1052 31.9749 37.2255 32.1436 37.3772 32.1462C37.5288 32.1487 37.6548 31.984 37.6583 31.778C37.6619 31.5722 37.5416 31.4032 37.3899 31.4007Z" fill="#231F20"/>
<path fill-rule="evenodd" clip-rule="evenodd" d="M27.1965 35.1129C27.1588 35.066 27.0968 35.0802 27.0366 35.0942C26.9947 35.104 26.9473 35.1147 26.8951 35.114C26.7836 35.1119 26.689 35.0648 26.6359 34.9841C26.5668 34.8791 26.5708 34.7225 26.647 34.5433L26.6826 34.463C26.8043 34.1928 27.0079 33.7409 26.7793 33.3101C26.6072 32.9858 26.3265 32.784 25.989 32.7415C25.6649 32.7009 25.3314 32.8197 25.1187 33.0518C24.7831 33.4182 24.7305 33.9168 24.7954 34.093C24.8192 34.1574 24.8564 34.1753 24.8833 34.1791C24.9404 34.1865 25.0248 34.1455 25.0777 34.0048L25.0928 33.959C25.1164 33.8846 25.1602 33.746 25.2322 33.6349C25.3189 33.501 25.4539 33.4088 25.6123 33.375C25.7737 33.3407 25.9388 33.3713 26.077 33.4609C26.3121 33.613 26.4027 33.8981 26.3022 34.17C26.2503 34.3107 26.1659 34.5797 26.1845 34.8007C26.2222 35.248 26.5003 35.4276 26.7501 35.4468C26.993 35.4559 27.1628 35.3208 27.2057 35.2223C27.231 35.164 27.2097 35.1285 27.1958 35.1133" fill="#231F20"/>
<path fill-rule="evenodd" clip-rule="evenodd" d="M29.5071 26.8973C30.2995 25.9915 31.2748 25.204 32.1486 24.7619C32.1788 24.7465 32.2108 24.7789 32.1946 24.8083C32.1252 24.9327 31.9915 25.1989 31.9493 25.4007C31.9427 25.4322 31.9774 25.4558 32.0042 25.4378C32.5479 25.0713 33.4934 24.6783 34.3229 24.6279C34.3585 24.6258 34.3757 24.6709 34.3474 24.6926C34.2212 24.7882 34.0833 24.9208 33.9825 25.0547C33.9653 25.0776 33.9816 25.1102 34.0104 25.1105C34.5927 25.1147 35.4137 25.3163 35.9488 25.6133C35.9849 25.6334 35.9592 25.7027 35.9186 25.6936C35.109 25.5099 33.7837 25.3706 32.4068 25.7029C31.1778 25.9995 30.2396 26.4575 29.5554 26.9498C29.5207 26.9748 29.479 26.9293 29.5071 26.8973ZM33.4533 35.6734L33.4535 35.6739L33.454 35.6748L33.4533 35.6734ZM36.7208 36.0549C36.7443 36.0451 36.7604 36.0187 36.7578 35.9924C36.7545 35.9599 36.7252 35.9364 36.6924 35.9396C36.6924 35.9396 35.0016 36.1872 33.4042 35.6088C33.5783 35.0492 34.0408 35.2513 34.7401 35.3071C36.0005 35.3815 37.1302 35.1993 37.9651 34.9622C38.6884 34.7569 39.6387 34.3518 40.3766 33.7755C40.6255 34.3163 40.7134 34.9118 40.7134 34.9118C40.7134 34.9118 40.9061 34.8777 41.0672 34.9757C41.2193 35.0684 41.3309 35.2609 41.2547 35.7588C41.0995 36.6889 40.7 37.4439 40.0283 38.1386C39.6193 38.5739 39.1231 38.9524 38.5552 39.2277C38.2535 39.3845 37.9325 39.5201 37.5932 39.6295C35.0611 40.4478 32.4691 39.5483 31.6337 37.6168C31.567 37.4717 31.5106 37.3196 31.4663 37.1607C31.1104 35.8878 31.4125 34.3607 32.3573 33.3993C32.4156 33.3382 32.475 33.2656 32.475 33.1749C32.475 33.099 32.4262 33.019 32.384 32.9621C32.0533 32.4877 30.9082 31.6795 31.1382 30.1152C31.3033 28.9915 32.2967 28.2 33.2229 28.2469L33.4575 28.2602C33.859 28.2838 34.209 28.3346 34.5394 28.3484C35.0924 28.3722 35.5896 28.2926 36.1788 27.8071C36.3774 27.6433 36.5368 27.5012 36.8064 27.4561C36.8347 27.4512 36.9052 27.4263 37.046 27.4328C37.1899 27.4405 37.3266 27.4795 37.4495 27.5604C37.9217 27.8712 37.9887 28.6242 38.0132 29.1749C38.0271 29.4892 38.0656 30.2498 38.0788 30.4682C38.1087 30.9676 38.2415 31.0378 38.5099 31.1253C38.6608 31.1745 38.8009 31.2112 39.0075 31.2686C39.6325 31.4422 40.0031 31.6183 40.2368 31.8447C40.3762 31.9861 40.441 32.1363 40.4611 32.2796C40.5347 32.8116 40.0436 33.4686 38.7434 34.0657C37.3222 34.7184 35.5979 34.8836 34.4066 34.7522L33.9891 34.7055C33.0363 34.5786 32.4927 35.7968 33.0646 36.6317C33.4333 37.1698 34.4373 37.5198 35.4417 37.52C37.7448 37.5202 39.5151 36.5472 40.1736 35.707L40.2262 35.6328C40.2587 35.5845 40.2318 35.5579 40.1915 35.5852C39.6535 35.9494 37.2639 37.3954 34.7078 36.9602C34.7078 36.9602 34.3972 36.9096 34.1137 36.8006C33.8884 36.7138 33.4167 36.4992 33.3594 36.0206C35.4222 36.6518 36.7208 36.0549 36.7208 36.0549ZM25.3908 31.2051C24.6733 31.343 24.041 31.7453 23.6545 32.3011C23.4233 32.1104 22.9929 31.7413 22.9167 31.5973C22.2995 30.4377 23.5903 28.1832 24.4922 26.9099C26.721 23.7634 30.2116 21.3818 31.8274 21.8139C32.0901 21.8874 32.9601 22.8854 32.9601 22.8854C32.9601 22.8854 31.3448 23.7721 29.8469 25.008C27.8285 26.5454 26.3042 28.7801 25.3908 31.2051ZM26.5962 36.5262C26.4877 36.5447 26.3769 36.5519 26.2651 36.5491C25.1856 36.5204 24.0198 35.5591 23.904 34.419C23.7759 33.1588 24.4269 32.1891 25.5792 31.959C25.717 31.9315 25.8835 31.9156 26.063 31.9249C26.7087 31.9599 27.6601 32.4504 27.8774 33.842C28.0698 35.0744 27.7641 36.3293 26.5962 36.5262ZM41.2179 34.2946C41.2087 34.2622 41.1483 34.0445 41.0656 33.782C40.9828 33.5193 40.8972 33.3347 40.8972 33.3347C41.2292 32.8431 41.2351 32.4032 41.1908 32.1543C41.1436 31.8456 41.0137 31.5826 40.7519 31.3106C40.4901 31.0387 39.9545 30.7601 39.2019 30.5511L38.8071 30.4426C38.8052 30.4265 38.7863 29.5216 38.7693 29.1331C38.7568 28.8522 38.7325 28.4137 38.595 27.9821C38.4311 27.3976 38.1458 26.8861 37.7894 26.559C38.7729 25.5505 39.3868 24.4394 39.3851 23.4865C39.3823 21.6536 37.1071 21.099 34.3031 22.2477L33.709 22.4971C33.7064 22.4946 32.6349 21.4546 32.6189 21.4406C29.4219 18.6819 19.4266 29.6735 22.6222 32.3431L23.3205 32.9285C23.1394 33.3928 23.0682 33.9248 23.1264 34.4967C23.2009 35.2315 23.584 35.9357 24.2049 36.4798C24.7943 36.9964 25.5693 37.3235 26.3212 37.3228C27.5648 40.158 30.4064 41.8973 33.738 41.9953C37.3118 42.1003 40.3118 40.4413 41.5689 37.4612C41.6512 37.2521 42 36.3097 42 35.4776C42 34.6416 41.5222 34.2946 41.2179 34.2946Z" fill="#231F20"/>
</svg>
