<svg width="64" height="64" viewBox="0 0 64 64" fill="none" xmlns="http://www.w3.org/2000/svg">
<rect x="0.5" y="0.5" width="63" height="63" rx="31.5" fill="#F9F9FA"/>
<rect x="0.5" y="0.5" width="63" height="63" rx="31.5" stroke="#E6E6E6"/>
<g clip-path="url(#clip0_847_6756)">
<path d="M23.2161 34.3668C23.8926 32.2986 24.7855 30.3075 25.8801 28.4268C30.1067 21.1041 36.2734 16.7508 39.6534 18.7014C32.0507 14.3121 22.1307 17.2588 17.4961 25.2854C16.9429 26.2431 16.48 27.2501 16.1134 28.2934C15.7681 29.2788 16.2361 30.3388 17.1401 30.8614L23.2161 34.3681V34.3668Z" fill="url(#paint0_radial_847_6756)"/>
<path d="M40.7839 29.552C40.107 31.6203 39.2136 33.6113 38.1185 35.492C33.8919 42.8147 27.7252 47.1693 24.3452 45.2173C31.9492 49.608 41.8692 46.66 46.5039 38.6333C47.0569 37.6761 47.5197 36.6695 47.8866 35.6267C48.2319 34.6427 47.7639 33.5813 46.8599 33.06L40.7839 29.5533V29.552Z" fill="url(#paint1_radial_847_6756)"/>
<path d="M38.1199 35.4933C42.3465 28.1706 43.0345 20.6533 39.6532 18.7013C36.2759 16.7506 30.1092 21.1066 25.8799 28.4266C28.6452 23.64 33.6252 21.34 37.0052 23.2906C40.3839 25.2426 40.8826 30.704 38.1186 35.492L38.1199 35.4933Z" fill="url(#paint2_linear_847_6756)"/>
<path d="M25.88 28.4268C21.6533 35.7494 20.9653 43.2668 24.3466 45.2174C27.7253 47.1694 33.892 42.8148 38.12 35.4921C35.3546 40.2801 30.3746 42.5801 26.9946 40.6281C23.616 38.6774 23.1173 33.2148 25.8813 28.4281L25.88 28.4268Z" fill="url(#paint3_linear_847_6756)"/>
</g>
<defs>
<radialGradient id="paint0_radial_847_6756" cx="0" cy="0" r="1" gradientUnits="userSpaceOnUse" gradientTransform="translate(22.8974 34.1828) rotate(-59.132) scale(19.4329 26.6304)">
<stop offset="0.095" stop-color="#FFF959"/>
<stop offset="0.326" stop-color="#0DF35E"/>
<stop offset="0.64" stop-color="#0BF2F9"/>
<stop offset="1" stop-color="#04A6F0"/>
</radialGradient>
<radialGradient id="paint1_radial_847_6756" cx="0" cy="0" r="1" gradientUnits="userSpaceOnUse" gradientTransform="translate(41.1016 29.736) rotate(120.868) scale(19.4329 26.6304)">
<stop offset="0.095" stop-color="#FFF959"/>
<stop offset="0.326" stop-color="#0DF35E"/>
<stop offset="0.64" stop-color="#0BF2F9"/>
<stop offset="1" stop-color="#04A6F0"/>
</radialGradient>
<linearGradient id="paint2_linear_847_6756" x1="36.7706" y1="18.3973" x2="40.0826" y2="29.148" gradientUnits="userSpaceOnUse">
<stop stop-color="#003EFF"/>
<stop offset="1" stop-color="#0BFFE7"/>
</linearGradient>
<linearGradient id="paint3_linear_847_6756" x1="27.2293" y1="45.5228" x2="23.9173" y2="34.7721" gradientUnits="userSpaceOnUse">
<stop stop-color="#003EFF"/>
<stop offset="1" stop-color="#0BFFE7"/>
</linearGradient>
<clipPath id="clip0_847_6756">
<rect width="32" height="32" fill="white" transform="translate(16 16)"/>
</clipPath>
</defs>
</svg>
