<svg width="64" height="64" viewBox="0 0 64 64" fill="none" xmlns="http://www.w3.org/2000/svg">
<rect x="0.5" y="0.5" width="63" height="63" rx="31.5" fill="#F9F9FA"/>
<rect x="0.5" y="0.5" width="63" height="63" rx="31.5" stroke="#E6E6E6"/>
<path d="M34.7826 46.6889L29.228 41.2727L41.1572 29.0911L46.9081 34.7273L34.7826 46.6889Z" fill="#8AB4F8"/>
<path d="M34.8065 22.7421L29.2719 17.0913L17.17 29.0784C15.61 30.6383 15.61 33.1674 17.17 34.7292L29.0901 46.7271L34.7265 41.4545L25.6446 31.9038L34.8065 22.7421Z" fill="#4285F4"/>
<path d="M46.8288 29.1711L34.8288 17.1713C33.2669 15.6096 30.7342 15.6096 29.1723 17.1713C27.6105 18.7331 27.6105 21.2658 29.1723 22.8276L41.1724 34.8274C42.7343 36.3892 45.267 36.3892 46.8288 34.8274C48.3907 33.2656 48.3907 30.7329 46.8288 29.1711Z" fill="#8AB4F8"/>
<path d="M31.9086 48.0001C34.0676 48.0001 35.8177 46.2499 35.8177 44.091C35.8177 41.9321 34.0676 40.1819 31.9086 40.1819C29.7497 40.1819 27.9995 41.9321 27.9995 44.091C27.9995 46.2499 29.7497 48.0001 31.9086 48.0001Z" fill="#246FDB"/>
</svg>
