<svg width="64" height="64" viewBox="0 0 64 64" fill="none" xmlns="http://www.w3.org/2000/svg">
<rect x="0.5" y="0.5" width="63" height="63" rx="31.5" fill="#F9F9FA"/>
<rect x="0.5" y="0.5" width="63" height="63" rx="31.5" stroke="#E6E6E6"/>
<path fill-rule="evenodd" clip-rule="evenodd" d="M24.9731 30.4402V33.9469C25.5259 34.8997 26.3101 35.6976 27.2531 36.2669V30.4402H24.9731Z" fill="#AECBFA"/>
<path fill-rule="evenodd" clip-rule="evenodd" d="M29.1865 27.2134V37.2534C29.6773 37.316 30.1719 37.3428 30.6665 37.3334C31.1105 37.3612 31.5558 37.3612 31.9999 37.3334V27.2134H29.1865Z" fill="#669DF6"/>
<path fill-rule="evenodd" clip-rule="evenodd" d="M34.1865 31.8135V36.2001C35.1347 35.5954 35.9144 34.7606 36.4532 33.7735V31.8135H34.1865Z" fill="#AECBFA"/>
<path fill-rule="evenodd" clip-rule="evenodd" d="M39.6532 37.7601L37.7599 39.6535C37.7067 39.7056 37.6644 39.7678 37.6355 39.8365C37.6067 39.9052 37.5918 39.979 37.5918 40.0535C37.5918 40.128 37.6067 40.2017 37.6355 40.2704C37.6644 40.3391 37.7067 40.4013 37.7599 40.4535L42.4799 45.1735C42.5847 45.2769 42.726 45.3348 42.8732 45.3348C43.0204 45.3348 43.1617 45.2769 43.2665 45.1735L45.1732 43.2668C45.2766 43.162 45.3346 43.0207 45.3346 42.8735C45.3346 42.7262 45.2766 42.5849 45.1732 42.4801L40.4532 37.7601C40.4011 37.7069 40.3388 37.6646 40.2702 37.6358C40.2015 37.6069 40.1277 37.592 40.0532 37.592C39.9787 37.592 39.905 37.6069 39.8363 37.6358C39.7676 37.6646 39.7054 37.7069 39.6532 37.7601Z" fill="#4285F4"/>
<path fill-rule="evenodd" clip-rule="evenodd" d="M30.6665 18.6667C28.2931 18.6667 25.9731 19.3705 23.9997 20.6891C22.0263 22.0077 20.4882 23.8818 19.58 26.0745C18.6717 28.2673 18.4341 30.6801 18.8971 33.0078C19.3601 35.3356 20.503 37.4738 22.1812 39.152C23.8595 40.8303 25.9977 41.9732 28.3254 42.4362C30.6532 42.8992 33.066 42.6616 35.2587 41.7533C37.4514 40.8451 39.3256 39.307 40.6441 37.3336C41.9627 35.3602 42.6665 33.0401 42.6665 30.6667C42.6665 29.0909 42.3561 27.5305 41.7531 26.0745C41.15 24.6186 40.2661 23.2958 39.1518 22.1815C38.0375 21.0672 36.7146 20.1833 35.2587 19.5802C33.8028 18.9771 32.2424 18.6667 30.6665 18.6667ZM30.6665 39.5868C28.9061 39.5841 27.1859 39.0598 25.7233 38.0802C24.2606 37.1005 23.1211 35.7093 22.4486 34.0824C21.7761 32.4554 21.6009 30.6657 21.945 28.9392C22.2891 27.2127 23.1371 25.6269 24.3819 24.3821C25.6267 23.1373 27.2125 22.2893 28.939 21.9452C30.6655 21.6011 32.4552 21.7764 34.0821 22.4489C35.7091 23.1213 37.1002 24.2608 38.0799 25.7235C39.0596 27.1861 39.5839 28.9063 39.5865 30.6667C39.5883 31.8386 39.3587 32.9993 38.9111 34.0824C38.4634 35.1654 37.8065 36.1494 36.9778 36.9781C36.1492 37.8067 35.1651 38.4637 34.0821 38.9113C32.9991 39.359 31.8384 39.5885 30.6665 39.5868Z" fill="#669DF6"/>
</svg>
