<svg width="64" height="64" viewBox="0 0 64 64" fill="none" xmlns="http://www.w3.org/2000/svg">
<rect x="0.5" y="0.5" width="63" height="63" rx="31.5" fill="#F9F9FA"/>
<rect x="0.5" y="0.5" width="63" height="63" rx="31.5" stroke="#E6E6E6"/>
<path d="M35.3854 26.9171C36.4657 25.0306 35.8246 22.6183 33.9535 21.5291C32.0824 20.4399 29.6898 21.0863 28.6095 22.9728L20.5311 37.0806C19.4508 38.9671 20.0919 41.3794 21.963 42.4686C23.8341 43.5578 26.2267 42.9114 27.3069 41.0249L35.3854 26.9171Z" fill="#F8BB2D"/>
<path d="M27.8263 39.0546C27.8263 41.2336 26.0743 43 23.9131 43C21.752 43 20 41.2336 20 39.0546C20 36.8756 21.752 35.1091 23.9131 35.1091C26.0743 35.1091 27.8263 36.8756 27.8263 39.0546Z" fill="#3BA757"/>
<path d="M28.621 26.9171C27.5407 25.0306 28.1818 22.6183 30.0529 21.5291C31.924 20.4399 34.3165 21.0863 35.3968 22.9728L43.4752 37.0806C44.5555 38.9671 43.9144 41.3794 42.0433 42.4686C40.1722 43.5578 37.7797 42.9114 36.6994 41.0249L28.621 26.9171Z" fill="#4689F2"/>
</svg>
