<svg width="64" height="64" viewBox="0 0 64 64" fill="none" xmlns="http://www.w3.org/2000/svg">
<rect x="0.5" y="0.5" width="63" height="63" rx="31.5" fill="#F9F9FA"/>
<rect x="0.5" y="0.5" width="63" height="63" rx="31.5" stroke="#E6E6E6"/>
<g clip-path="url(#clip0_847_6436)">
<path d="M31.9887 47.9774C40.8191 47.9774 47.9774 40.8191 47.9774 31.9887C47.9774 23.1584 40.8191 16 31.9887 16C23.1584 16 16 23.1584 16 31.9887C16 40.8191 23.1584 47.9774 31.9887 47.9774Z" fill="#7D2AE7"/>
<path d="M31.9887 47.9774C40.8191 47.9774 47.9774 40.8191 47.9774 31.9887C47.9774 23.1584 40.8191 16 31.9887 16C23.1584 16 16 23.1584 16 31.9887C16 40.8191 23.1584 47.9774 31.9887 47.9774Z" fill="url(#paint0_radial_847_6436)"/>
<path d="M31.9887 47.9774C40.8191 47.9774 47.9774 40.8191 47.9774 31.9887C47.9774 23.1584 40.8191 16 31.9887 16C23.1584 16 16 23.1584 16 31.9887C16 40.8191 23.1584 47.9774 31.9887 47.9774Z" fill="url(#paint1_radial_847_6436)"/>
<path d="M31.9887 47.9774C40.8191 47.9774 47.9774 40.8191 47.9774 31.9887C47.9774 23.1584 40.8191 16 31.9887 16C23.1584 16 16 23.1584 16 31.9887C16 40.8191 23.1584 47.9774 31.9887 47.9774Z" fill="url(#paint2_radial_847_6436)"/>
<path d="M31.9887 47.9774C40.8191 47.9774 47.9774 40.8191 47.9774 31.9887C47.9774 23.1584 40.8191 16 31.9887 16C23.1584 16 16 23.1584 16 31.9887C16 40.8191 23.1584 47.9774 31.9887 47.9774Z" fill="url(#paint3_radial_847_6436)"/>
<path d="M44.1415 33.439C44.0996 33.439 44.0615 33.4661 44.0417 33.5228C43.7891 34.2438 43.4477 34.6727 43.1667 34.6727C43.0053 34.6727 42.94 34.4928 42.94 34.2106C42.94 33.5044 43.3626 32.007 43.5759 31.3243C43.6006 31.2416 43.6166 31.1677 43.6166 31.1049C43.6166 30.9064 43.5081 30.809 43.2394 30.809C42.9498 30.809 42.638 30.9224 42.3348 31.4536C42.2301 30.9853 41.9134 30.7807 41.4709 30.7807C40.9594 30.7807 40.4652 31.1098 40.0586 31.6434C39.6519 32.177 39.1737 32.3521 38.8138 32.2658C39.0726 31.6323 39.1687 31.159 39.1687 30.8078C39.1687 30.2569 38.8964 29.9242 38.4564 29.9242C37.7872 29.9242 37.4015 30.5626 37.4015 31.2342C37.4015 31.7531 37.6368 32.2867 38.1545 32.5456C37.7207 33.5265 37.0872 34.4139 36.8469 34.4139C36.5364 34.4139 36.4451 32.8943 36.4623 31.8073C36.4734 31.1837 36.5252 31.1517 36.5252 30.9631C36.5252 30.8547 36.455 30.7807 36.1728 30.7807C35.5146 30.7807 35.3113 31.3378 35.2805 31.9774C35.2705 32.2205 35.2325 32.4616 35.1671 32.6959C34.8923 33.6769 34.3253 34.4213 33.9556 34.4213C33.7843 34.4213 33.7375 34.2499 33.7375 34.0257C33.7375 33.3195 34.1331 32.4371 34.1331 31.6841C34.1331 31.1307 33.8903 30.7808 33.4331 30.7808C32.8945 30.7808 32.1822 31.4216 31.5081 32.622C31.7299 31.7026 31.8211 30.8128 31.1642 30.8128C31.0217 30.8149 30.8818 30.8513 30.7563 30.9188C30.7142 30.9386 30.679 30.9705 30.6553 31.0105C30.6316 31.0505 30.6204 31.0966 30.6232 31.143C30.686 32.1216 29.8344 34.6283 29.0272 34.6283C28.8806 34.6283 28.8091 34.4693 28.8091 34.213C28.8091 33.5056 29.2305 32.0119 29.4425 31.3279C29.4696 31.2392 29.4845 31.1627 29.4845 31.0962C29.4845 30.9089 29.3686 30.8128 29.1061 30.8128C28.8177 30.8128 28.5047 30.9224 28.2028 31.4536C28.0967 30.9853 27.78 30.7807 27.3376 30.7807C26.6117 30.7807 25.8007 31.5486 25.4446 32.5493C24.9676 33.8852 24.0063 35.1755 22.7123 35.1755C21.5378 35.1755 20.9179 34.1982 20.9179 32.654C20.9179 30.4245 22.5546 28.6031 23.7685 28.6031C24.349 28.6031 24.6263 28.9728 24.6263 29.5397C24.6263 30.2261 24.2429 30.5453 24.2429 30.8066C24.2429 30.8867 24.3095 30.9656 24.4414 30.9656C24.9689 30.9656 25.59 30.3457 25.59 29.5003C25.59 28.6548 24.9035 28.0361 23.6896 28.0361C21.6833 28.0361 19.6646 30.0548 19.6646 32.6417C19.6646 34.6998 20.68 35.9408 22.4362 35.9408C23.6341 35.9408 24.6805 35.0092 25.2449 33.9221C25.309 34.823 25.7182 35.2938 26.3418 35.2938C26.8964 35.2938 27.3449 34.9636 27.6875 34.3831C27.8194 34.9907 28.1694 35.2877 28.6242 35.2877C29.1455 35.2877 29.5818 34.9574 29.9971 34.3437C29.991 34.8255 30.1006 35.2791 30.5184 35.2791C30.7156 35.2791 30.951 35.2334 30.9929 35.0609C31.4329 33.2419 32.5199 31.7568 32.8526 31.7568C32.9512 31.7568 32.9783 31.8517 32.9783 31.9638C32.9783 32.4581 32.6295 33.4711 32.6295 34.1181C32.6295 34.8169 32.9266 35.2791 33.5403 35.2791C34.2206 35.2791 34.912 34.4459 35.3729 33.2283C35.5171 34.3658 35.829 35.2839 36.317 35.2839C36.9159 35.2839 37.9794 34.0232 38.624 32.6885C38.8766 32.7205 39.2562 32.7119 39.621 32.4543C39.4657 32.8475 39.3746 33.2776 39.3746 33.7077C39.3746 34.9463 39.9661 35.2938 40.4751 35.2938C41.0285 35.2938 41.4771 34.9636 41.8209 34.3831C41.9343 34.9069 42.2239 35.2864 42.7563 35.2864C43.5894 35.2864 44.3129 34.4348 44.3129 33.736C44.3129 33.5512 44.234 33.439 44.1415 33.439ZM26.8496 34.6073C26.5131 34.6073 26.3812 34.2684 26.3812 33.7632C26.3812 32.8857 26.9814 31.4203 27.6161 31.4203C27.8934 31.4203 27.9982 31.7469 27.9982 32.1462C27.9982 33.0373 27.4276 34.6073 26.8496 34.6073ZM38.3738 31.9885C38.173 31.7494 38.1003 31.424 38.1003 31.1344C38.1003 30.777 38.2309 30.4751 38.3874 30.4751C38.5439 30.4751 38.592 30.6291 38.592 30.8436C38.592 31.2022 38.4638 31.726 38.3738 31.9885ZM40.9829 34.6073C40.6465 34.6073 40.5146 34.2179 40.5146 33.7632C40.5146 32.9165 41.1148 31.4203 41.7544 31.4203C42.0317 31.4203 42.1303 31.7445 42.1303 32.1462C42.1303 33.0373 41.5695 34.6073 40.9829 34.6073Z" fill="white"/>
</g>
<defs>
<radialGradient id="paint0_radial_847_6436" cx="0" cy="0" r="1" gradientUnits="userSpaceOnUse" gradientTransform="translate(22.1675 44.3423) rotate(-49.416) scale(24.7319)">
<stop stop-color="#6420FF"/>
<stop offset="1" stop-color="#6420FF" stop-opacity="0"/>
</radialGradient>
<radialGradient id="paint1_radial_847_6436" cx="0" cy="0" r="1" gradientUnits="userSpaceOnUse" gradientTransform="translate(24.4656 19.6353) rotate(54.703) scale(27.8898)">
<stop stop-color="#00C4CC"/>
<stop offset="1" stop-color="#00C4CC" stop-opacity="0"/>
</radialGradient>
<radialGradient id="paint2_radial_847_6436" cx="0" cy="0" r="1" gradientUnits="userSpaceOnUse" gradientTransform="translate(22.1767 44.3421) rotate(-45.1954) scale(24.4324 11.2368)">
<stop stop-color="#6420FF"/>
<stop offset="1" stop-color="#6420FF" stop-opacity="0"/>
</radialGradient>
<radialGradient id="paint3_radial_847_6436" cx="0" cy="0" r="1" gradientUnits="userSpaceOnUse" gradientTransform="translate(29.0771 20.3085) rotate(66.5198) scale(25.1757 42.175)">
<stop stop-color="#00C4CC"/>
<stop offset="1" stop-color="#00C4CC" stop-opacity="0"/>
</radialGradient>
<clipPath id="clip0_847_6436">
<rect width="32" height="32" fill="white" transform="translate(16 16)"/>
</clipPath>
</defs>
</svg>
