<svg width="64" height="64" viewBox="0 0 64 64" fill="none" xmlns="http://www.w3.org/2000/svg">
<rect x="0.5" y="0.5" width="63" height="63" rx="31.5" fill="#F9F9FA"/>
<rect x="0.5" y="0.5" width="63" height="63" rx="31.5" stroke="#E6E6E6"/>
<path d="M37.3688 27.911V25.4116C37.6984 25.2573 37.9775 25.0123 38.1736 24.7053C38.3697 24.3982 38.4746 24.0416 38.4762 23.677V23.6187C38.4749 23.1092 38.2723 22.621 37.9128 22.2608C37.5532 21.9005 37.066 21.6975 36.5576 21.6962H36.4994C35.9909 21.6975 35.5037 21.9005 35.1442 22.2608C34.7846 22.621 34.5821 23.1092 34.5807 23.6187V23.677C34.5823 24.0416 34.6873 24.3982 34.8833 24.7053C35.0794 25.0123 35.3585 25.2573 35.6882 25.4116V27.911C34.7404 28.0562 33.8478 28.4498 33.1006 29.0518L26.2513 23.712C26.3001 23.5359 26.3262 23.3542 26.329 23.1714C26.3295 22.7425 26.203 22.323 25.9656 21.9661C25.7282 21.6091 25.3905 21.3307 24.9952 21.1661C24.5999 21.0015 24.1647 20.958 23.7448 21.0412C23.3248 21.1244 22.9389 21.3305 22.6358 21.6334C22.3327 21.9364 22.1261 22.3226 22.0421 22.7432C21.9581 23.1638 22.0004 23.5999 22.1638 23.9964C22.3271 24.3929 22.6041 24.732 22.9598 24.9707C23.3155 25.2095 23.7338 25.3372 24.1619 25.3377C24.5379 25.3363 24.9069 25.2357 25.2319 25.046L31.966 30.2989C31.3594 31.2158 31.043 32.2947 31.058 33.3947C31.073 34.4947 31.4187 35.5645 32.0501 36.4645L30.0007 38.5179C29.8362 38.4655 29.6649 38.4375 29.4923 38.435C29.1404 38.435 28.7965 38.5395 28.5039 38.7354C28.2114 38.9312 27.9834 39.2096 27.8487 39.5353C27.7141 39.8611 27.6789 40.2195 27.7475 40.5652C27.8161 40.911 27.9856 41.2286 28.2344 41.4779C28.4831 41.7272 28.8001 41.897 29.1452 41.9657C29.4903 42.0345 29.848 41.9992 30.173 41.8643C30.4981 41.7294 30.7759 41.5009 30.9714 41.2078C31.1669 40.9147 31.2712 40.57 31.2712 40.2175C31.2688 40.0445 31.2409 39.8728 31.1884 39.708L33.2157 37.6766C33.8775 38.1831 34.6461 38.5314 35.4627 38.6949C36.2793 38.8584 37.1224 38.8328 37.9276 38.62C38.7329 38.4072 39.4789 38.0129 40.1089 37.4672C40.7388 36.9214 41.236 36.2387 41.5625 35.471C41.8889 34.7034 42.036 33.8712 41.9925 33.0379C41.9491 32.2046 41.7161 31.3923 41.3116 30.6629C40.907 29.9336 40.3414 29.3065 39.6581 28.8296C38.9748 28.3526 38.1918 28.0384 37.3688 27.911ZM36.5291 36.1326C35.9744 36.1326 35.4321 35.9678 34.9708 35.6589C34.5095 35.3501 34.15 34.9112 33.9377 34.3976C33.7254 33.884 33.6699 33.3189 33.7781 32.7737C33.8863 32.2286 34.1535 31.7278 34.5457 31.3347C34.938 30.9416 35.4378 30.674 35.9819 30.5655C36.526 30.4571 37.09 30.5127 37.6025 30.7255C38.115 30.9382 38.5531 31.2984 38.8613 31.7606C39.1695 32.2228 39.334 32.7662 39.334 33.3221C39.334 34.0675 39.0385 34.7823 38.5125 35.3094C37.9865 35.8365 37.273 36.1326 36.5291 36.1326Z" fill="#FF7A59"/>
</svg>
