<svg width="64" height="64" viewBox="0 0 64 64" fill="none" xmlns="http://www.w3.org/2000/svg">
<rect x="0.5" y="0.5" width="63" height="63" rx="31.5" fill="#F9F9FA"/>
<rect x="0.5" y="0.5" width="63" height="63" rx="31.5" stroke="#E6E6E6"/>
<g clip-path="url(#clip0_847_6720)">
<path d="M16.125 45.2227C17.0625 45.2227 18.4688 43.2539 20.1094 42.9727C21.0469 42.9727 21.75 44.9414 24.0938 45.2227C25.7344 45.2227 26.4375 43.2539 28.0781 43.2539C29.7188 43.2539 30.4219 45.2227 32.0625 45.2227C33.7031 45.2227 34.4062 43.2539 36.0469 43.2539C37.6875 43.2539 38.3906 45.2227 40.0312 45.2227C41.6719 45.2227 42.375 43.2539 44.0156 43.2539C45.6562 43.2539 46.3594 45.2227 48 45.2227" stroke="black" stroke-width="1.3" stroke-linecap="round" stroke-linejoin="round"/>
<path d="M19.3312 43.2631L18.2578 41.21L45.9141 39.4287C43.7391 41.4068 40.9453 43.01 38.1188 44.3225" stroke="black" stroke-width="1.3" stroke-linecap="round" stroke-linejoin="round"/>
<path d="M29.269 22.085C33.9753 23.524 40.5565 30.4756 42.7972 37.9475C41.569 37.4646 40.6503 36.9725 38.9253 37.4131C37.2565 31.3428 34.2706 25.5443 29.269 22.085Z" stroke="black" stroke-width="1.3" stroke-linecap="round" stroke-linejoin="round"/>
<path d="M20.5168 18.7617C26.5449 21.3398 34.8137 28.5164 36.3324 38.0742C29.3809 35.2711 24.0887 36.7664 20.4043 39.0398C26.0246 31.8961 23.5027 23.7727 20.5168 18.7617Z" stroke="black" stroke-width="1.3" stroke-linecap="round" stroke-linejoin="round"/>
</g>
<defs>
<clipPath id="clip0_847_6720">
<rect width="32" height="32" fill="white" transform="translate(16 16)"/>
</clipPath>
</defs>
</svg>
