<svg width="64" height="64" viewBox="0 0 64 64" fill="none" xmlns="http://www.w3.org/2000/svg">
<rect x="0.5" y="0.5" width="63" height="63" rx="31.5" fill="#F9F9FA"/>
<rect x="0.5" y="0.5" width="63" height="63" rx="31.5" stroke="#E6E6E6"/>
<g clip-path="url(#clip0_847_6314)">
<rect x="16" y="16" width="32" height="32" fill="#1080F8"/>
<path d="M32.3445 27.7801C30.3143 25.195 28.6165 24.21 26.5846 24.21C22.442 24.21 19.2681 29.601 19.2681 35.3072C19.2681 38.878 20.9955 41.13 23.889 41.13C25.9716 41.13 27.4693 40.1483 30.1319 35.494C30.1319 35.494 31.2418 33.5339 32.0054 32.1837C32.2729 32.6157 32.5541 33.0805 32.8508 33.5801L34.0995 35.6806C36.5315 39.7507 37.8868 41.13 40.3423 41.13C43.1612 41.13 44.7298 38.8472 44.7298 35.2023C44.7298 29.2276 41.4844 24.21 37.5417 24.21C35.4539 24.21 33.822 25.7825 32.3445 27.7801ZM36.249 33.8077L34.7561 31.3179C34.3522 30.6609 33.9651 30.057 33.5915 29.5036C34.9368 27.4268 36.0468 26.3921 37.3667 26.3921C40.109 26.3921 42.3028 30.4296 42.3028 35.3889C42.3028 37.2792 41.6835 38.3761 40.4007 38.3761C39.1711 38.3761 38.5836 37.5641 36.249 33.8077ZM22.0219 35.3539C22.0219 31.2113 24.0873 26.9755 26.5495 26.9755C27.8828 26.9755 28.997 27.7456 30.7038 30.1888C29.0832 32.6746 28.1015 34.2336 28.1015 34.2336C25.9428 37.6176 25.1959 38.3761 23.9941 38.3761C22.7571 38.3761 22.0219 37.2902 22.0219 35.3539Z" fill="white"/>
</g>
<defs>
<clipPath id="clip0_847_6314">
<rect x="16" y="16" width="32" height="32" rx="16" fill="white"/>
</clipPath>
</defs>
</svg>
