<svg width="64" height="64" viewBox="0 0 64 64" fill="none" xmlns="http://www.w3.org/2000/svg">
<rect x="0.5" y="0.5" width="63" height="63" rx="31.5" fill="#F9F9FA"/>
<rect x="0.5" y="0.5" width="63" height="63" rx="31.5" stroke="#E6E6E6"/>
<path d="M32 18C24.2781 18 18 24.2781 18 32C18 39.7219 24.2781 46 32 46C39.7219 46 46 39.7219 46 32C46 24.2781 39.7219 18 32 18Z" fill="#E6001F"/>
<path d="M23 39C23 39 29.2207 24.0039 29.2059 24C29.2059 24 29.2059 24 29.2059 24H29.2059H33.9301L41 39L35.6601 39C35.6641 39.0079 31.6563 29.7963 31.606 29.7037C31.5972 29.784 28.9484 35.9491 28.9164 35.9567H31.771C31.758 35.9724 33.0122 38.9714 33.0122 39L23 39Z" fill="white"/>
</svg>
