<svg width="64" height="64" viewBox="0 0 64 64" fill="none" xmlns="http://www.w3.org/2000/svg">
<rect x="0.5" y="0.5" width="63" height="63" rx="31.5" fill="#F9F9FA"/>
<rect x="0.5" y="0.5" width="63" height="63" rx="31.5" stroke="#E6E6E6"/>
<g clip-path="url(#clip0_847_6321)">
<path d="M16 26.7332C16 22.9366 16 21.0383 16.7506 19.5934C17.3831 18.3758 18.3759 17.383 19.5935 16.7505C21.0384 15.9999 22.9367 15.9999 26.7333 15.9999H37.2667C41.0633 15.9999 42.9616 15.9999 44.4065 16.7505C45.6241 17.383 46.6169 18.3758 47.2494 19.5934C48 21.0383 48 22.9366 48 26.7332V37.2665C48 41.0632 48 42.9615 47.2494 44.4064C46.6169 45.624 45.6241 46.6168 44.4065 47.2493C42.9616 47.9999 41.0633 47.9999 37.2667 47.9999H26.7333C22.9367 47.9999 21.0384 47.9999 19.5935 47.2493C18.3759 46.6168 17.3831 45.624 16.7506 44.4064C16 42.9615 16 41.0632 16 37.2665V26.7332Z" fill="#1265BF"/>
<path d="M25.335 26.1425C26.5143 26.1425 27.4703 25.1853 27.4703 24.0045C27.4703 22.8237 26.5143 21.8665 25.335 21.8665C24.1557 21.8665 23.1997 22.8237 23.1997 24.0045C23.1997 25.1853 24.1557 26.1425 25.335 26.1425Z" fill="white"/>
<path d="M29.4259 27.7226H32.9648V29.3459C32.9648 29.3459 33.9251 27.4227 36.538 27.4227C38.8689 27.4227 40.7997 28.5724 40.7997 32.0768V39.4665H37.1324V32.9722C37.1324 30.905 36.0302 30.6776 35.1902 30.6776C33.4471 30.6776 33.1487 32.1831 33.1487 33.2419V39.4665H29.4259V27.7226Z" fill="white"/>
<path d="M23.4736 27.7226H27.1964V39.4665H23.4736V27.7226Z" fill="white"/>
</g>
<defs>
<clipPath id="clip0_847_6321">
<rect x="16" y="16" width="32" height="32" rx="16" fill="white"/>
</clipPath>
</defs>
</svg>
