<svg width="64" height="64" viewBox="0 0 64 64" fill="none" xmlns="http://www.w3.org/2000/svg">
<rect x="0.5" y="0.5" width="63" height="63" rx="31.5" fill="#F9F9FA"/>
<rect x="0.5" y="0.5" width="63" height="63" rx="31.5" stroke="#E6E6E6"/>
<g clip-path="url(#clip0_847_6547)">
<path d="M31.982 47.7883C40.7116 47.7883 47.7883 40.7116 47.7883 31.982C47.7883 23.2525 40.7116 16.1758 31.982 16.1758C23.2525 16.1758 16.1758 23.2525 16.1758 31.982C16.1758 40.7116 23.2525 47.7883 31.982 47.7883Z" fill="#2AB540"/>
<path d="M21.8441 31.8899C21.8434 33.6834 22.312 35.4344 23.2031 36.9778L21.7588 42.2511L27.1557 40.8359C28.6426 41.6469 30.3166 42.074 32.0206 42.0747H32.0248C37.6353 42.0747 42.2026 37.5088 42.2051 31.8976C42.2061 29.1783 41.1478 26.6212 39.2261 24.6977C37.3041 22.7743 34.748 21.7142 32.0248 21.7131C26.4132 21.7131 21.8466 26.2783 21.8441 31.8899ZM25.0581 36.7119L24.8565 36.3919C24.0092 35.0452 23.5621 33.4884 23.5628 31.8903C23.5646 27.2264 27.3602 23.4318 32.0276 23.4318C34.2879 23.4329 36.4119 24.3138 38.0097 25.9123C39.6072 27.5112 40.4864 29.6366 40.486 31.8966C40.4839 36.5608 36.6883 40.3557 32.0244 40.3557H32.0213C30.5028 40.3547 29.0135 39.9472 27.7146 39.1766L27.4055 38.9932L24.2028 39.8331L25.0581 36.7119Z" fill="white"/>
<path d="M29.4803 27.6348C29.2896 27.2112 29.0894 27.2028 28.9078 27.1954C28.7596 27.1891 28.5899 27.1895 28.4202 27.1895C28.2506 27.1895 27.9749 27.253 27.742 27.5077C27.5088 27.7623 26.8516 28.3777 26.8516 29.6289C26.8516 30.8804 27.7631 32.0897 27.8902 32.2598C28.0174 32.4294 29.65 35.0796 32.2352 36.0993C34.3841 36.9465 34.8211 36.7782 35.2875 36.7357C35.754 36.6932 36.7926 36.1207 37.0044 35.5267C37.2166 34.9328 37.2166 34.4238 37.153 34.3174C37.0894 34.2113 36.9198 34.1477 36.6655 34.0206C36.4112 33.8934 35.1604 33.278 34.9275 33.193C34.6943 33.1084 34.5246 33.0659 34.355 33.3205C34.1853 33.5748 33.6981 34.1477 33.5499 34.3174C33.4017 34.4874 33.2531 34.5085 32.9988 34.3813C32.7445 34.2538 31.925 33.9854 30.9531 33.1189C30.1969 32.4445 29.6865 31.612 29.5379 31.3574C29.3897 31.1031 29.5221 30.9654 29.6496 30.8386C29.7638 30.7248 29.9039 30.5414 30.0314 30.3932C30.1582 30.2446 30.2007 30.1386 30.2854 29.9689C30.3704 29.7992 30.3279 29.6507 30.2643 29.5232C30.2007 29.3957 29.7065 28.1378 29.4803 27.6348Z" fill="white"/>
</g>
<defs>
<clipPath id="clip0_847_6547">
<rect width="32" height="32" fill="white" transform="translate(16 16)"/>
</clipPath>
</defs>
</svg>
