<svg width="64" height="64" viewBox="0 0 64 64" fill="none" xmlns="http://www.w3.org/2000/svg">
<rect x="0.5" y="0.5" width="63" height="63" rx="31.5" fill="#F9F9FA"/>
<rect x="0.5" y="0.5" width="63" height="63" rx="31.5" stroke="#E6E6E6"/>
<path d="M32.2968 27.7039H23.1971C22.3069 27.7039 21.5884 26.9817 21.5884 26.0871V20.7084C21.5884 19.8137 22.3069 19.0916 23.1971 19.0916H30.6882C31.5783 19.0916 32.2968 19.8137 32.2968 20.7084V27.7039Z" fill="#F5640C"/>
<path d="M41.3966 36.3111H32.2969V27.7041H41.3966C42.2814 27.7041 43 28.4263 43 29.3155V34.6942C43 35.5889 42.2814 36.3111 41.3966 36.3111Z" fill="#F5640C"/>
<path d="M30.6877 44.9231H23.1966C22.3118 44.9231 21.5933 44.2009 21.5933 43.3117V37.933C21.5933 37.0437 22.3118 36.3215 23.1966 36.3215H32.2964V43.317C32.2964 44.1955 31.5778 44.9231 30.6877 44.9231Z" fill="#F5640C"/>
</svg>
