<svg width="64" height="64" viewBox="0 0 64 64" fill="none" xmlns="http://www.w3.org/2000/svg">
<rect x="0.5" y="0.5" width="63" height="63" rx="31.5" fill="#F9F9FA"/>
<rect x="0.5" y="0.5" width="63" height="63" rx="31.5" stroke="#E6E6E6"/>
<g clip-path="url(#clip0_847_6538)">
<path fill-rule="evenodd" clip-rule="evenodd" d="M44.6316 30.4005C43.062 30.4005 41.7432 29.3806 41.3693 28.0005H37.5085C36.6852 28.0005 35.9826 28.566 35.8473 29.3374L35.7088 30.1266C35.5774 30.8758 35.1784 31.5278 34.6142 32.0005C35.1784 32.4732 35.5774 33.1252 35.7088 33.8744L35.8473 34.6636C35.9826 35.435 36.6852 36.0005 37.5085 36.0005H38.0008C38.3747 34.6204 39.6936 33.6005 41.2632 33.6005C43.1235 33.6005 44.6316 35.0332 44.6316 36.8005C44.6316 38.5678 43.1235 40.0005 41.2632 40.0005C39.6936 40.0005 38.3747 38.9806 38.0008 37.6005H37.5085C35.8619 37.6005 34.4567 36.4696 34.186 34.9266L34.0474 34.1374C33.9121 33.366 33.2095 32.8005 32.3862 32.8005H31.0518C30.6779 34.1806 29.359 35.2005 27.7895 35.2005C26.2199 35.2005 24.9011 34.1806 24.5272 32.8005H22.6307C22.2568 34.1806 20.938 35.2005 19.3684 35.2005C17.5081 35.2005 16 33.7678 16 32.0005C16 30.2332 17.5081 28.8005 19.3684 28.8005C20.938 28.8005 22.2568 29.8204 22.6307 31.2005H24.5272C24.9011 29.8204 26.2199 28.8005 27.7895 28.8005C29.359 28.8005 30.6779 29.8204 31.0518 31.2005H32.3862C33.2095 31.2005 33.9121 30.635 34.0474 29.8636L34.186 29.0744C34.4567 27.5314 35.8619 26.4005 37.5085 26.4005H41.3693C41.7432 25.0204 43.062 24.0005 44.6316 24.0005C46.4919 24.0005 48 25.4332 48 27.2005C48 28.9678 46.4919 30.4005 44.6316 30.4005ZM44.6316 28.8005C45.5617 28.8005 46.3158 28.0841 46.3158 27.2005C46.3158 26.3169 45.5617 25.6005 44.6316 25.6005C43.7015 25.6005 42.9474 26.3169 42.9474 27.2005C42.9474 28.0841 43.7015 28.8005 44.6316 28.8005ZM19.3684 33.6005C20.2985 33.6005 21.0526 32.8841 21.0526 32.0005C21.0526 31.1169 20.2985 30.4005 19.3684 30.4005C18.4383 30.4005 17.6842 31.1169 17.6842 32.0005C17.6842 32.8841 18.4383 33.6005 19.3684 33.6005ZM29.4737 32.0005C29.4737 32.8841 28.7196 33.6005 27.7895 33.6005C26.8594 33.6005 26.1053 32.8841 26.1053 32.0005C26.1053 31.1169 26.8594 30.4005 27.7895 30.4005C28.7196 30.4005 29.4737 31.1169 29.4737 32.0005ZM42.9474 36.8005C42.9474 37.6841 42.1933 38.4005 41.2632 38.4005C40.3331 38.4005 39.5789 37.6841 39.5789 36.8005C39.5789 35.9169 40.3331 35.2005 41.2632 35.2005C42.1933 35.2005 42.9474 35.9169 42.9474 36.8005Z" fill="#EA4B71"/>
</g>
<defs>
<clipPath id="clip0_847_6538">
<rect width="32" height="32" fill="white" transform="translate(16 16)"/>
</clipPath>
</defs>
</svg>
