<svg width="64" height="64" viewBox="0 0 64 64" fill="none" xmlns="http://www.w3.org/2000/svg">
<rect x="0.5" y="0.5" width="63" height="63" rx="31.5" fill="#F9F9FA"/>
<rect x="0.5" y="0.5" width="63" height="63" rx="31.5" stroke="#E6E6E6"/>
<circle cx="32" cy="32" r="14" fill="#028CB0"/>
<path d="M22.4554 32C22.4554 35.7823 24.6554 39.04 27.8369 40.5885L23.2846 28.1162C22.738 29.338 22.4554 30.6615 22.4554 32ZM32 41.5446C33.1085 41.5446 34.1746 41.35 35.1731 41.0031L35.1054 40.8762L32.1692 32.8377L29.3092 41.1554C30.1554 41.4092 31.0608 41.5446 32 41.5446ZM33.3115 27.5238L36.7638 37.7877L37.72 34.6062C38.1262 33.2862 38.4392 32.3385 38.4392 31.5177C38.4392 30.3331 38.0162 29.5208 37.6608 28.8946C37.17 28.0992 36.7215 27.4308 36.7215 26.6523C36.7215 25.7723 37.3815 24.96 38.3292 24.96H38.4477C36.689 23.3455 34.3874 22.4514 32 22.4554C30.4192 22.4551 28.8632 22.8478 27.4718 23.5981C26.0805 24.3484 24.8975 25.4329 24.0292 26.7538L24.6385 26.7708C25.6369 26.7708 27.1769 26.6438 27.1769 26.6438C27.7015 26.6185 27.7608 27.3715 27.2446 27.4308C27.2446 27.4308 26.7285 27.4985 26.1446 27.5238L29.6308 37.8638L31.7208 31.6023L30.2315 27.5238C29.898 27.5054 29.565 27.4772 29.2331 27.4392C28.7169 27.4054 28.7762 26.6185 29.2923 26.6438C29.2923 26.6438 30.8662 26.7708 31.8054 26.7708C32.8038 26.7708 34.3438 26.6438 34.3438 26.6438C34.86 26.6185 34.9277 27.3715 34.4115 27.4308C34.4115 27.4308 33.8954 27.49 33.3115 27.5238ZM36.7977 40.25C38.2416 39.4104 39.4399 38.2066 40.2729 36.7589C41.1059 35.3112 41.5444 33.6703 41.5446 32C41.5446 30.3415 41.1215 28.7846 40.3769 27.4223C40.5281 28.9211 40.3012 30.4339 39.7169 31.8223L36.7977 40.25ZM32 43C29.0826 43 26.2847 41.8411 24.2218 39.7782C22.1589 37.7153 21 34.9174 21 32C21 29.0826 22.1589 26.2847 24.2218 24.2218C26.2847 22.1589 29.0826 21 32 21C34.9174 21 37.7153 22.1589 39.7782 24.2218C41.8411 26.2847 43 29.0826 43 32C43 34.9174 41.8411 37.7153 39.7782 39.7782C37.7153 41.8411 34.9174 43 32 43Z" fill="white"/>
</svg>
